<svg width="467" height="329" viewBox="0 0 467 329" fill="none" xmlns="http://www.w3.org/2000/svg">
<rect width="467" height="329" fill="#DEEFE4"/>
<path d="M48.4602 156.909H50.2756L53.9062 163.02H54.0597L57.6903 156.909H59.5057L54.7756 164.605V170H53.1903V164.605L48.4602 156.909ZM63.9513 170.205C63.065 170.205 62.2873 169.994 61.6183 169.572C60.9535 169.15 60.4336 168.56 60.0586 167.801C59.6879 167.043 59.5025 166.156 59.5025 165.142C59.5025 164.119 59.6879 163.227 60.0586 162.464C60.4336 161.701 60.9535 161.109 61.6183 160.687C62.2873 160.265 63.065 160.054 63.9513 160.054C64.8377 160.054 65.6133 160.265 66.2781 160.687C66.9471 161.109 67.467 161.701 67.8377 162.464C68.2127 163.227 68.4002 164.119 68.4002 165.142C68.4002 166.156 68.2127 167.043 67.8377 167.801C67.467 168.56 66.9471 169.15 66.2781 169.572C65.6133 169.994 64.8377 170.205 63.9513 170.205ZM63.9513 168.849C64.6246 168.849 65.1786 168.677 65.6133 168.332C66.0479 167.987 66.3697 167.533 66.5785 166.97C66.7873 166.408 66.8917 165.798 66.8917 165.142C66.8917 164.486 66.7873 163.874 66.5785 163.308C66.3697 162.741 66.0479 162.283 65.6133 161.933C65.1786 161.584 64.6246 161.409 63.9513 161.409C63.2781 161.409 62.7241 161.584 62.2894 161.933C61.8548 162.283 61.533 162.741 61.3242 163.308C61.1154 163.874 61.011 164.486 61.011 165.142C61.011 165.798 61.1154 166.408 61.3242 166.97C61.533 167.533 61.8548 167.987 62.2894 168.332C62.7241 168.677 63.2781 168.849 63.9513 168.849ZM76.8904 165.986V160.182H78.399V170H76.8904V168.338H76.7882C76.5581 168.837 76.2001 169.261 75.7143 169.61C75.2285 169.955 74.6149 170.128 73.8734 170.128C73.2598 170.128 72.7143 169.994 72.237 169.725C71.7598 169.452 71.3848 169.043 71.112 168.498C70.8393 167.948 70.7029 167.256 70.7029 166.42V160.182H72.2115V166.318C72.2115 167.034 72.4118 167.605 72.8123 168.031C73.2172 168.457 73.7328 168.67 74.3592 168.67C74.7342 168.67 75.1156 168.575 75.5034 168.383C75.8954 168.191 76.2235 167.897 76.4877 167.501C76.7562 167.104 76.8904 166.599 76.8904 165.986ZM88.4489 170L85.4574 160.182H87.0426L89.1648 167.699H89.267L91.3636 160.182H92.9744L95.0455 167.673H95.1477L97.2699 160.182H98.8551L95.8636 170H94.3807L92.233 162.457H92.0795L89.9318 170H88.4489ZM100.849 170V160.182H102.358V170H100.849ZM101.616 158.545C101.322 158.545 101.069 158.445 100.856 158.245C100.647 158.045 100.543 157.804 100.543 157.523C100.543 157.241 100.647 157.001 100.856 156.8C101.069 156.6 101.322 156.5 101.616 156.5C101.911 156.5 102.162 156.6 102.371 156.8C102.584 157.001 102.69 157.241 102.69 157.523C102.69 157.804 102.584 158.045 102.371 158.245C102.162 158.445 101.911 158.545 101.616 158.545ZM106.629 156.909V170H105.121V156.909H106.629ZM110.901 156.909V170H109.392V156.909H110.901ZM120.235 156.909V170H118.726V156.909H120.235ZM127.114 170.205C126.168 170.205 125.352 169.996 124.666 169.578C123.984 169.156 123.458 168.568 123.087 167.814C122.721 167.055 122.538 166.173 122.538 165.168C122.538 164.162 122.721 163.276 123.087 162.509C123.458 161.737 123.974 161.136 124.634 160.706C125.299 160.271 126.075 160.054 126.961 160.054C127.472 160.054 127.977 160.139 128.476 160.31C128.974 160.48 129.428 160.757 129.837 161.141C130.246 161.52 130.572 162.023 130.815 162.649C131.058 163.276 131.18 164.047 131.18 164.963V165.602H123.612V164.298H129.646C129.646 163.744 129.535 163.25 129.313 162.815C129.096 162.381 128.785 162.038 128.38 161.786C127.979 161.535 127.506 161.409 126.961 161.409C126.36 161.409 125.84 161.558 125.401 161.857C124.967 162.151 124.632 162.534 124.398 163.007C124.163 163.48 124.046 163.987 124.046 164.528V165.398C124.046 166.139 124.174 166.768 124.43 167.283C124.69 167.795 125.05 168.185 125.51 168.453C125.97 168.717 126.505 168.849 127.114 168.849C127.511 168.849 127.869 168.794 128.188 168.683C128.512 168.568 128.791 168.398 129.026 168.172C129.26 167.942 129.441 167.656 129.569 167.315L131.026 167.724C130.873 168.219 130.615 168.653 130.253 169.028C129.891 169.399 129.443 169.689 128.911 169.898C128.378 170.102 127.779 170.205 127.114 170.205ZM136.364 170.23C135.741 170.23 135.177 170.113 134.67 169.879C134.163 169.64 133.76 169.297 133.462 168.849C133.163 168.398 133.014 167.852 133.014 167.213C133.014 166.651 133.125 166.195 133.347 165.845C133.568 165.491 133.864 165.214 134.235 165.014C134.606 164.814 135.015 164.665 135.462 164.567C135.914 164.464 136.368 164.384 136.824 164.324C137.42 164.247 137.904 164.19 138.275 164.151C138.65 164.109 138.923 164.038 139.093 163.94C139.268 163.842 139.355 163.672 139.355 163.429V163.378C139.355 162.747 139.183 162.257 138.837 161.908C138.496 161.558 137.979 161.384 137.284 161.384C136.564 161.384 135.999 161.541 135.59 161.857C135.181 162.172 134.893 162.509 134.727 162.866L133.295 162.355C133.551 161.759 133.892 161.294 134.318 160.962C134.749 160.625 135.217 160.391 135.724 160.259C136.236 160.122 136.739 160.054 137.233 160.054C137.548 160.054 137.911 160.092 138.32 160.169C138.733 160.241 139.131 160.393 139.515 160.623C139.903 160.853 140.224 161.2 140.48 161.665C140.736 162.129 140.864 162.751 140.864 163.531V170H139.355V168.67H139.278C139.176 168.884 139.006 169.112 138.767 169.354C138.528 169.597 138.211 169.804 137.815 169.974C137.418 170.145 136.935 170.23 136.364 170.23ZM136.594 168.875C137.19 168.875 137.693 168.758 138.102 168.523C138.516 168.289 138.827 167.987 139.036 167.616C139.249 167.245 139.355 166.855 139.355 166.446V165.065C139.291 165.142 139.151 165.212 138.933 165.276C138.72 165.336 138.473 165.389 138.192 165.436C137.915 165.479 137.644 165.517 137.38 165.551C137.12 165.581 136.909 165.607 136.747 165.628C136.355 165.679 135.989 165.762 135.648 165.877C135.311 165.988 135.038 166.156 134.83 166.382C134.625 166.604 134.523 166.906 134.523 167.29C134.523 167.814 134.717 168.21 135.104 168.479C135.496 168.743 135.993 168.875 136.594 168.875ZM143.617 170V160.182H145.074V161.665H145.177C145.356 161.179 145.68 160.785 146.148 160.482C146.617 160.18 147.145 160.028 147.733 160.028C147.844 160.028 147.983 160.031 148.149 160.035C148.315 160.039 148.441 160.045 148.526 160.054V161.588C148.475 161.575 148.358 161.556 148.175 161.531C147.996 161.501 147.806 161.486 147.606 161.486C147.128 161.486 146.702 161.586 146.327 161.786C145.956 161.982 145.662 162.255 145.445 162.604C145.232 162.95 145.126 163.344 145.126 163.787V170H143.617ZM151.823 164.094V170H150.314V160.182H151.772V161.716H151.9C152.13 161.217 152.479 160.817 152.948 160.514C153.417 160.207 154.022 160.054 154.763 160.054C155.428 160.054 156.01 160.19 156.508 160.463C157.007 160.732 157.395 161.141 157.672 161.69C157.949 162.236 158.087 162.926 158.087 163.761V170H156.578V163.864C156.578 163.092 156.378 162.491 155.978 162.061C155.577 161.626 155.027 161.409 154.328 161.409C153.847 161.409 153.417 161.513 153.037 161.722C152.662 161.931 152.366 162.236 152.149 162.636C151.931 163.037 151.823 163.523 151.823 164.094ZM167.415 164.094V170H165.906V156.909H167.415V161.716H167.542C167.773 161.209 168.118 160.806 168.578 160.508C169.042 160.205 169.66 160.054 170.432 160.054C171.101 160.054 171.687 160.188 172.189 160.457C172.692 160.721 173.082 161.128 173.359 161.678C173.64 162.223 173.781 162.918 173.781 163.761V170H172.273V163.864C172.273 163.084 172.07 162.481 171.665 162.055C171.265 161.624 170.709 161.409 169.997 161.409C169.503 161.409 169.059 161.513 168.667 161.722C168.28 161.931 167.973 162.236 167.747 162.636C167.525 163.037 167.415 163.523 167.415 164.094ZM180.529 170.205C179.643 170.205 178.865 169.994 178.196 169.572C177.532 169.15 177.012 168.56 176.637 167.801C176.266 167.043 176.081 166.156 176.081 165.142C176.081 164.119 176.266 163.227 176.637 162.464C177.012 161.701 177.532 161.109 178.196 160.687C178.865 160.265 179.643 160.054 180.529 160.054C181.416 160.054 182.191 160.265 182.856 160.687C183.525 161.109 184.045 161.701 184.416 162.464C184.791 163.227 184.978 164.119 184.978 165.142C184.978 166.156 184.791 167.043 184.416 167.801C184.045 168.56 183.525 169.15 182.856 169.572C182.191 169.994 181.416 170.205 180.529 170.205ZM180.529 168.849C181.203 168.849 181.757 168.677 182.191 168.332C182.626 167.987 182.948 167.533 183.157 166.97C183.365 166.408 183.47 165.798 183.47 165.142C183.47 164.486 183.365 163.874 183.157 163.308C182.948 162.741 182.626 162.283 182.191 161.933C181.757 161.584 181.203 161.409 180.529 161.409C179.856 161.409 179.302 161.584 178.868 161.933C178.433 162.283 178.111 162.741 177.902 163.308C177.694 163.874 177.589 164.486 177.589 165.142C177.589 165.798 177.694 166.408 177.902 166.97C178.111 167.533 178.433 167.987 178.868 168.332C179.302 168.677 179.856 168.849 180.529 168.849ZM189.172 170L186.18 160.182H187.765L189.887 167.699H189.99L192.086 160.182H193.697L195.768 167.673H195.87L197.993 160.182H199.578L196.586 170H195.103L192.956 162.457H192.802L190.654 170H189.172ZM210.904 160.182V161.46H205.816V160.182H210.904ZM207.299 157.83H208.808V167.188C208.808 167.614 208.87 167.933 208.993 168.146C209.121 168.355 209.283 168.496 209.479 168.568C209.679 168.636 209.89 168.67 210.112 168.67C210.278 168.67 210.414 168.662 210.521 168.645C210.627 168.624 210.713 168.607 210.777 168.594L211.083 169.949C210.981 169.987 210.838 170.026 210.655 170.064C210.472 170.107 210.24 170.128 209.958 170.128C209.532 170.128 209.115 170.036 208.706 169.853C208.301 169.67 207.964 169.391 207.696 169.016C207.431 168.641 207.299 168.168 207.299 167.597V157.83ZM217.057 170.205C216.17 170.205 215.393 169.994 214.724 169.572C214.059 169.15 213.539 168.56 213.164 167.801C212.793 167.043 212.608 166.156 212.608 165.142C212.608 164.119 212.793 163.227 213.164 162.464C213.539 161.701 214.059 161.109 214.724 160.687C215.393 160.265 216.17 160.054 217.057 160.054C217.943 160.054 218.719 160.265 219.384 160.687C220.053 161.109 220.572 161.701 220.943 162.464C221.318 163.227 221.506 164.119 221.506 165.142C221.506 166.156 221.318 167.043 220.943 167.801C220.572 168.56 220.053 169.15 219.384 169.572C218.719 169.994 217.943 170.205 217.057 170.205ZM217.057 168.849C217.73 168.849 218.284 168.677 218.719 168.332C219.153 167.987 219.475 167.533 219.684 166.97C219.893 166.408 219.997 165.798 219.997 165.142C219.997 164.486 219.893 163.874 219.684 163.308C219.475 162.741 219.153 162.283 218.719 161.933C218.284 161.584 217.73 161.409 217.057 161.409C216.384 161.409 215.83 161.584 215.395 161.933C214.96 162.283 214.638 162.741 214.43 163.308C214.221 163.874 214.116 164.486 214.116 165.142C214.116 165.798 214.221 166.408 214.43 166.97C214.638 167.533 214.96 167.987 215.395 168.332C215.83 168.677 216.384 168.849 217.057 168.849ZM232.86 170.205C231.939 170.205 231.146 169.987 230.482 169.553C229.817 169.118 229.306 168.519 228.948 167.756C228.59 166.994 228.411 166.122 228.411 165.142C228.411 164.145 228.594 163.265 228.96 162.502C229.331 161.735 229.847 161.136 230.507 160.706C231.172 160.271 231.948 160.054 232.834 160.054C233.524 160.054 234.146 160.182 234.7 160.438C235.254 160.693 235.708 161.051 236.062 161.511C236.416 161.972 236.635 162.509 236.72 163.122H235.212C235.097 162.675 234.841 162.278 234.445 161.933C234.053 161.584 233.524 161.409 232.86 161.409C232.271 161.409 231.756 161.562 231.313 161.869C230.874 162.172 230.531 162.6 230.284 163.154C230.041 163.704 229.919 164.349 229.919 165.091C229.919 165.849 230.039 166.51 230.277 167.072C230.52 167.635 230.861 168.072 231.3 168.383C231.743 168.694 232.263 168.849 232.86 168.849C233.252 168.849 233.607 168.781 233.927 168.645C234.247 168.509 234.517 168.312 234.739 168.057C234.96 167.801 235.118 167.494 235.212 167.136H236.72C236.635 167.716 236.424 168.238 236.088 168.702C235.755 169.163 235.314 169.529 234.764 169.802C234.219 170.07 233.584 170.205 232.86 170.205ZM238.926 170V160.182H240.383V161.665H240.485C240.664 161.179 240.988 160.785 241.457 160.482C241.926 160.18 242.454 160.028 243.042 160.028C243.153 160.028 243.291 160.031 243.458 160.035C243.624 160.039 243.749 160.045 243.835 160.054V161.588C243.784 161.575 243.666 161.556 243.483 161.531C243.304 161.501 243.115 161.486 242.914 161.486C242.437 161.486 242.011 161.586 241.636 161.786C241.265 161.982 240.971 162.255 240.754 162.604C240.541 162.95 240.434 163.344 240.434 163.787V170H238.926ZM249.441 170.205C248.494 170.205 247.678 169.996 246.992 169.578C246.311 169.156 245.784 168.568 245.414 167.814C245.047 167.055 244.864 166.173 244.864 165.168C244.864 164.162 245.047 163.276 245.414 162.509C245.784 161.737 246.3 161.136 246.96 160.706C247.625 160.271 248.401 160.054 249.287 160.054C249.798 160.054 250.303 160.139 250.802 160.31C251.301 160.48 251.754 160.757 252.164 161.141C252.573 161.52 252.899 162.023 253.142 162.649C253.384 163.276 253.506 164.047 253.506 164.963V165.602H245.938V164.298H251.972C251.972 163.744 251.861 163.25 251.639 162.815C251.422 162.381 251.111 162.038 250.706 161.786C250.306 161.535 249.833 161.409 249.287 161.409C248.686 161.409 248.166 161.558 247.727 161.857C247.293 162.151 246.958 162.534 246.724 163.007C246.49 163.48 246.372 163.987 246.372 164.528V165.398C246.372 166.139 246.5 166.768 246.756 167.283C247.016 167.795 247.376 168.185 247.836 168.453C248.296 168.717 248.831 168.849 249.441 168.849C249.837 168.849 250.195 168.794 250.514 168.683C250.838 168.568 251.117 168.398 251.352 168.172C251.586 167.942 251.767 167.656 251.895 167.315L253.352 167.724C253.199 168.219 252.941 168.653 252.579 169.028C252.217 169.399 251.769 169.689 251.237 169.898C250.704 170.102 250.105 170.205 249.441 170.205ZM258.69 170.23C258.068 170.23 257.503 170.113 256.996 169.879C256.489 169.64 256.086 169.297 255.788 168.849C255.49 168.398 255.34 167.852 255.34 167.213C255.34 166.651 255.451 166.195 255.673 165.845C255.894 165.491 256.191 165.214 256.561 165.014C256.932 164.814 257.341 164.665 257.789 164.567C258.24 164.464 258.694 164.384 259.15 164.324C259.747 164.247 260.23 164.19 260.601 164.151C260.976 164.109 261.249 164.038 261.419 163.94C261.594 163.842 261.681 163.672 261.681 163.429V163.378C261.681 162.747 261.509 162.257 261.164 161.908C260.823 161.558 260.305 161.384 259.61 161.384C258.89 161.384 258.325 161.541 257.916 161.857C257.507 162.172 257.22 162.509 257.053 162.866L255.622 162.355C255.877 161.759 256.218 161.294 256.644 160.962C257.075 160.625 257.544 160.391 258.051 160.259C258.562 160.122 259.065 160.054 259.559 160.054C259.874 160.054 260.237 160.092 260.646 160.169C261.059 160.241 261.458 160.393 261.841 160.623C262.229 160.853 262.551 161.2 262.806 161.665C263.062 162.129 263.19 162.751 263.19 163.531V170H261.681V168.67H261.605C261.502 168.884 261.332 169.112 261.093 169.354C260.855 169.597 260.537 169.804 260.141 169.974C259.744 170.145 259.261 170.23 258.69 170.23ZM258.92 168.875C259.517 168.875 260.019 168.758 260.428 168.523C260.842 168.289 261.153 167.987 261.362 167.616C261.575 167.245 261.681 166.855 261.681 166.446V165.065C261.617 165.142 261.477 165.212 261.259 165.276C261.046 165.336 260.799 165.389 260.518 165.436C260.241 165.479 259.97 165.517 259.706 165.551C259.446 165.581 259.235 165.607 259.073 165.628C258.681 165.679 258.315 165.762 257.974 165.877C257.637 165.988 257.365 166.156 257.156 166.382C256.951 166.604 256.849 166.906 256.849 167.29C256.849 167.814 257.043 168.21 257.431 168.479C257.823 168.743 258.319 168.875 258.92 168.875ZM270.213 160.182V161.46H265.125V160.182H270.213ZM266.608 157.83H268.116V167.188C268.116 167.614 268.178 167.933 268.302 168.146C268.43 168.355 268.592 168.496 268.788 168.568C268.988 168.636 269.199 168.67 269.42 168.67C269.587 168.67 269.723 168.662 269.83 168.645C269.936 168.624 270.021 168.607 270.085 168.594L270.392 169.949C270.29 169.987 270.147 170.026 269.964 170.064C269.781 170.107 269.548 170.128 269.267 170.128C268.841 170.128 268.423 170.036 268.014 169.853C267.609 169.67 267.273 169.391 267.004 169.016C266.74 168.641 266.608 168.168 266.608 167.597V157.83ZM276.493 170.205C275.547 170.205 274.731 169.996 274.045 169.578C273.363 169.156 272.837 168.568 272.466 167.814C272.1 167.055 271.917 166.173 271.917 165.168C271.917 164.162 272.1 163.276 272.466 162.509C272.837 161.737 273.353 161.136 274.013 160.706C274.678 160.271 275.453 160.054 276.34 160.054C276.851 160.054 277.356 160.139 277.855 160.31C278.353 160.48 278.807 160.757 279.216 161.141C279.625 161.52 279.951 162.023 280.194 162.649C280.437 163.276 280.559 164.047 280.559 164.963V165.602H272.99V164.298H279.025C279.025 163.744 278.914 163.25 278.692 162.815C278.475 162.381 278.164 162.038 277.759 161.786C277.358 161.535 276.885 161.409 276.34 161.409C275.739 161.409 275.219 161.558 274.78 161.857C274.346 162.151 274.011 162.534 273.777 163.007C273.542 163.48 273.425 163.987 273.425 164.528V165.398C273.425 166.139 273.553 166.768 273.809 167.283C274.069 167.795 274.429 168.185 274.889 168.453C275.349 168.717 275.884 168.849 276.493 168.849C276.89 168.849 277.248 168.794 277.567 168.683C277.891 168.568 278.17 168.398 278.404 168.172C278.639 167.942 278.82 167.656 278.948 167.315L280.405 167.724C280.252 168.219 279.994 168.653 279.632 169.028C279.27 169.399 278.822 169.689 278.289 169.898C277.757 170.102 277.158 170.205 276.493 170.205ZM290.805 170.23C290.183 170.23 289.618 170.113 289.111 169.879C288.604 169.64 288.201 169.297 287.903 168.849C287.605 168.398 287.456 167.852 287.456 167.213C287.456 166.651 287.566 166.195 287.788 165.845C288.01 165.491 288.306 165.214 288.676 165.014C289.047 164.814 289.456 164.665 289.904 164.567C290.355 164.464 290.809 164.384 291.265 164.324C291.862 164.247 292.346 164.19 292.716 164.151C293.091 164.109 293.364 164.038 293.534 163.94C293.709 163.842 293.797 163.672 293.797 163.429V163.378C293.797 162.747 293.624 162.257 293.279 161.908C292.938 161.558 292.42 161.384 291.725 161.384C291.005 161.384 290.441 161.541 290.032 161.857C289.623 162.172 289.335 162.509 289.169 162.866L287.737 162.355C287.993 161.759 288.333 161.294 288.76 160.962C289.19 160.625 289.659 160.391 290.166 160.259C290.677 160.122 291.18 160.054 291.674 160.054C291.99 160.054 292.352 160.092 292.761 160.169C293.174 160.241 293.573 160.393 293.956 160.623C294.344 160.853 294.666 161.2 294.922 161.665C295.177 162.129 295.305 162.751 295.305 163.531V170H293.797V168.67H293.72C293.618 168.884 293.447 169.112 293.208 169.354C292.97 169.597 292.652 169.804 292.256 169.974C291.86 170.145 291.376 170.23 290.805 170.23ZM291.035 168.875C291.632 168.875 292.135 168.758 292.544 168.523C292.957 168.289 293.268 167.987 293.477 167.616C293.69 167.245 293.797 166.855 293.797 166.446V165.065C293.733 165.142 293.592 165.212 293.375 165.276C293.162 165.336 292.914 165.389 292.633 165.436C292.356 165.479 292.086 165.517 291.821 165.551C291.561 165.581 291.35 165.607 291.189 165.628C290.797 165.679 290.43 165.762 290.089 165.877C289.752 165.988 289.48 166.156 289.271 166.382C289.066 166.604 288.964 166.906 288.964 167.29C288.964 167.814 289.158 168.21 289.546 168.479C289.938 168.743 290.434 168.875 291.035 168.875ZM303.325 170V156.909H304.834V161.741H304.962C305.073 161.571 305.226 161.354 305.422 161.089C305.622 160.821 305.908 160.582 306.279 160.374C306.654 160.161 307.161 160.054 307.8 160.054C308.627 160.054 309.355 160.261 309.986 160.674C310.617 161.087 311.109 161.673 311.463 162.432C311.816 163.19 311.993 164.085 311.993 165.116C311.993 166.156 311.816 167.058 311.463 167.82C311.109 168.579 310.619 169.167 309.992 169.585C309.366 169.998 308.644 170.205 307.825 170.205C307.195 170.205 306.69 170.1 306.311 169.891C305.931 169.678 305.639 169.437 305.435 169.169C305.23 168.896 305.073 168.67 304.962 168.491H304.783V170H303.325ZM304.808 165.091C304.808 165.832 304.917 166.487 305.134 167.053C305.352 167.616 305.669 168.057 306.087 168.376C306.504 168.692 307.016 168.849 307.621 168.849C308.252 168.849 308.778 168.683 309.2 168.351C309.626 168.014 309.945 167.562 310.159 166.996C310.376 166.425 310.485 165.79 310.485 165.091C310.485 164.401 310.378 163.778 310.165 163.224C309.956 162.666 309.639 162.225 309.213 161.901C308.791 161.573 308.26 161.409 307.621 161.409C307.007 161.409 306.492 161.565 306.074 161.876C305.656 162.183 305.341 162.613 305.128 163.167C304.915 163.717 304.808 164.358 304.808 165.091ZM314.301 170V160.182H315.758V161.665H315.86C316.039 161.179 316.363 160.785 316.832 160.482C317.301 160.18 317.829 160.028 318.417 160.028C318.528 160.028 318.666 160.031 318.833 160.035C318.999 160.039 319.124 160.045 319.21 160.054V161.588C319.159 161.575 319.041 161.556 318.858 161.531C318.679 161.501 318.49 161.486 318.289 161.486C317.812 161.486 317.386 161.586 317.011 161.786C316.64 161.982 316.346 162.255 316.129 162.604C315.916 162.95 315.809 163.344 315.809 163.787V170H314.301ZM323.887 170.23C323.265 170.23 322.7 170.113 322.193 169.879C321.686 169.64 321.283 169.297 320.985 168.849C320.687 168.398 320.538 167.852 320.538 167.213C320.538 166.651 320.648 166.195 320.87 165.845C321.092 165.491 321.388 165.214 321.759 165.014C322.129 164.814 322.538 164.665 322.986 164.567C323.438 164.464 323.891 164.384 324.347 164.324C324.944 164.247 325.428 164.19 325.798 164.151C326.173 164.109 326.446 164.038 326.616 163.94C326.791 163.842 326.879 163.672 326.879 163.429V163.378C326.879 162.747 326.706 162.257 326.361 161.908C326.02 161.558 325.502 161.384 324.808 161.384C324.087 161.384 323.523 161.541 323.114 161.857C322.705 162.172 322.417 162.509 322.251 162.866L320.819 162.355C321.075 161.759 321.415 161.294 321.842 160.962C322.272 160.625 322.741 160.391 323.248 160.259C323.759 160.122 324.262 160.054 324.756 160.054C325.072 160.054 325.434 160.092 325.843 160.169C326.256 160.241 326.655 160.393 327.038 160.623C327.426 160.853 327.748 161.2 328.004 161.665C328.259 162.129 328.387 162.751 328.387 163.531V170H326.879V168.67H326.802C326.7 168.884 326.529 169.112 326.29 169.354C326.052 169.597 325.734 169.804 325.338 169.974C324.942 170.145 324.458 170.23 323.887 170.23ZM324.117 168.875C324.714 168.875 325.217 168.758 325.626 168.523C326.039 168.289 326.35 167.987 326.559 167.616C326.772 167.245 326.879 166.855 326.879 166.446V165.065C326.815 165.142 326.674 165.212 326.457 165.276C326.244 165.336 325.996 165.389 325.715 165.436C325.438 165.479 325.168 165.517 324.903 165.551C324.643 165.581 324.433 165.607 324.271 165.628C323.879 165.679 323.512 165.762 323.171 165.877C322.835 165.988 322.562 166.156 322.353 166.382C322.148 166.604 322.046 166.906 322.046 167.29C322.046 167.814 322.24 168.21 322.628 168.479C323.02 168.743 323.516 168.875 324.117 168.875ZM332.649 164.094V170H331.14V160.182H332.598V161.716H332.726C332.956 161.217 333.305 160.817 333.774 160.514C334.243 160.207 334.848 160.054 335.589 160.054C336.254 160.054 336.836 160.19 337.334 160.463C337.833 160.732 338.221 161.141 338.498 161.69C338.775 162.236 338.913 162.926 338.913 163.761V170H337.405V163.864C337.405 163.092 337.204 162.491 336.804 162.061C336.403 161.626 335.854 161.409 335.155 161.409C334.673 161.409 334.243 161.513 333.863 161.722C333.488 161.931 333.192 162.236 332.975 162.636C332.758 163.037 332.649 163.523 332.649 164.094ZM345.377 170.205C344.559 170.205 343.837 169.998 343.21 169.585C342.584 169.167 342.094 168.579 341.74 167.82C341.386 167.058 341.21 166.156 341.21 165.116C341.21 164.085 341.386 163.19 341.74 162.432C342.094 161.673 342.586 161.087 343.217 160.674C343.847 160.261 344.576 160.054 345.403 160.054C346.042 160.054 346.547 160.161 346.918 160.374C347.293 160.582 347.578 160.821 347.774 161.089C347.974 161.354 348.13 161.571 348.241 161.741H348.369V156.909H349.877V170H348.42V168.491H348.241C348.13 168.67 347.972 168.896 347.768 169.169C347.563 169.437 347.271 169.678 346.892 169.891C346.513 170.1 346.008 170.205 345.377 170.205ZM345.582 168.849C346.187 168.849 346.698 168.692 347.116 168.376C347.533 168.057 347.851 167.616 348.068 167.053C348.286 166.487 348.394 165.832 348.394 165.091C348.394 164.358 348.288 163.717 348.075 163.167C347.862 162.613 347.546 162.183 347.129 161.876C346.711 161.565 346.195 161.409 345.582 161.409C344.942 161.409 344.41 161.573 343.984 161.901C343.562 162.225 343.244 162.666 343.031 163.224C342.822 163.778 342.718 164.401 342.718 165.091C342.718 165.79 342.825 166.425 343.038 166.996C343.255 167.562 343.575 168.014 343.996 168.351C344.423 168.683 344.951 168.849 345.582 168.849ZM49.3807 198V188.182H50.8892V198H49.3807ZM50.1477 186.545C49.8537 186.545 49.6001 186.445 49.3871 186.245C49.1783 186.045 49.0739 185.804 49.0739 185.523C49.0739 185.241 49.1783 185.001 49.3871 184.8C49.6001 184.6 49.8537 184.5 50.1477 184.5C50.4418 184.5 50.6932 184.6 50.902 184.8C51.1151 185.001 51.2216 185.241 51.2216 185.523C51.2216 185.804 51.1151 186.045 50.902 186.245C50.6932 186.445 50.4418 186.545 50.1477 186.545ZM57.3596 198.205C56.5414 198.205 55.8191 197.998 55.1926 197.585C54.5662 197.167 54.0762 196.579 53.7225 195.82C53.3688 195.058 53.1919 194.156 53.1919 193.116C53.1919 192.085 53.3688 191.19 53.7225 190.432C54.0762 189.673 54.5684 189.087 55.199 188.674C55.8297 188.261 56.5584 188.054 57.3851 188.054C58.0243 188.054 58.5293 188.161 58.9 188.374C59.275 188.582 59.5605 188.821 59.7566 189.089C59.9569 189.354 60.1124 189.571 60.2232 189.741H60.351V184.909H61.8596V198H60.4022V196.491H60.2232C60.1124 196.67 59.9547 196.896 59.7502 197.169C59.5456 197.437 59.2537 197.678 58.8745 197.891C58.4952 198.1 57.9902 198.205 57.3596 198.205ZM57.5641 196.849C58.1692 196.849 58.6806 196.692 59.0982 196.376C59.5158 196.057 59.8333 195.616 60.0506 195.053C60.2679 194.487 60.3766 193.832 60.3766 193.091C60.3766 192.358 60.2701 191.717 60.057 191.167C59.8439 190.613 59.5286 190.183 59.111 189.876C58.6934 189.565 58.1777 189.409 57.5641 189.409C56.9249 189.409 56.3922 189.573 55.9661 189.901C55.5442 190.225 55.2267 190.666 55.0137 191.224C54.8049 191.778 54.7005 192.401 54.7005 193.091C54.7005 193.79 54.807 194.425 55.0201 194.996C55.2374 195.562 55.557 196.014 55.9789 196.351C56.405 196.683 56.9334 196.849 57.5641 196.849ZM68.9483 198.205C68.0023 198.205 67.1863 197.996 66.5002 197.578C65.8184 197.156 65.2921 196.568 64.9213 195.814C64.5549 195.055 64.3716 194.173 64.3716 193.168C64.3716 192.162 64.5549 191.276 64.9213 190.509C65.2921 189.737 65.8077 189.136 66.4682 188.706C67.133 188.271 67.9086 188.054 68.7949 188.054C69.3063 188.054 69.8113 188.139 70.3098 188.31C70.8084 188.48 71.2623 188.757 71.6713 189.141C72.0804 189.52 72.4064 190.023 72.6493 190.649C72.8922 191.276 73.0137 192.047 73.0137 192.963V193.602H65.4455V192.298H71.4796C71.4796 191.744 71.3688 191.25 71.1472 190.815C70.9299 190.381 70.6188 190.038 70.214 189.786C69.8134 189.535 69.3404 189.409 68.7949 189.409C68.1941 189.409 67.6742 189.558 67.2353 189.857C66.8006 190.151 66.4661 190.534 66.2317 191.007C65.9973 191.48 65.8801 191.987 65.8801 192.528V193.398C65.8801 194.139 66.008 194.768 66.2637 195.283C66.5236 195.795 66.8837 196.185 67.3439 196.453C67.8042 196.717 68.339 196.849 68.9483 196.849C69.3446 196.849 69.7026 196.794 70.0222 196.683C70.3461 196.568 70.6252 196.398 70.8596 196.172C71.0939 195.942 71.275 195.656 71.4029 195.315L72.8603 195.724C72.7069 196.219 72.449 196.653 72.0868 197.028C71.7246 197.399 71.2772 197.689 70.7445 197.898C70.2118 198.102 69.6131 198.205 68.9483 198.205ZM76.8169 192.094V198H75.3084V188.182H76.7658V189.716H76.8936C77.1238 189.217 77.4732 188.817 77.9419 188.514C78.4107 188.207 79.0158 188.054 79.7573 188.054C80.4221 188.054 81.0037 188.19 81.5023 188.463C82.0009 188.732 82.3887 189.141 82.6657 189.69C82.9426 190.236 83.0811 190.926 83.0811 191.761V198H81.5726V191.864C81.5726 191.092 81.3723 190.491 80.9718 190.061C80.5712 189.626 80.0215 189.409 79.3226 189.409C78.8411 189.409 78.4107 189.513 78.0314 189.722C77.6564 189.931 77.3603 190.236 77.1429 190.636C76.9256 191.037 76.8169 191.523 76.8169 192.094ZM90.1076 188.182V189.46H85.0195V188.182H90.1076ZM86.5025 185.83H88.011V195.188C88.011 195.614 88.0728 195.933 88.1964 196.146C88.3242 196.355 88.4862 196.496 88.6822 196.568C88.8825 196.636 89.0934 196.67 89.315 196.67C89.4812 196.67 89.6175 196.662 89.7241 196.645C89.8306 196.624 89.9158 196.607 89.9798 196.594L90.2866 197.949C90.1843 197.987 90.0415 198.026 89.8583 198.064C89.6751 198.107 89.4428 198.128 89.1616 198.128C88.7354 198.128 88.3178 198.036 87.9087 197.853C87.5039 197.67 87.1673 197.391 86.8988 197.016C86.6346 196.641 86.5025 196.168 86.5025 195.597V185.83ZM92.3768 198V188.182H93.8853V198H92.3768ZM93.1438 186.545C92.8498 186.545 92.5962 186.445 92.3832 186.245C92.1744 186.045 92.07 185.804 92.07 185.523C92.07 185.241 92.1744 185.001 92.3832 184.8C92.5962 184.6 92.8498 184.5 93.1438 184.5C93.4379 184.5 93.6893 184.6 93.8981 184.8C94.1112 185.001 94.2177 185.241 94.2177 185.523C94.2177 185.804 94.1112 186.045 93.8981 186.245C93.6893 186.445 93.4379 186.545 93.1438 186.545ZM100.918 188.182V189.46H95.8301V188.182H100.918ZM97.313 185.83H98.8216V195.188C98.8216 195.614 98.8833 195.933 99.0069 196.146C99.1348 196.355 99.2967 196.496 99.4927 196.568C99.693 196.636 99.9039 196.67 100.126 196.67C100.292 196.67 100.428 196.662 100.535 196.645C100.641 196.624 100.726 196.607 100.79 196.594L101.097 197.949C100.995 197.987 100.852 198.026 100.669 198.064C100.486 198.107 100.253 198.128 99.9721 198.128C99.546 198.128 99.1284 198.036 98.7193 197.853C98.3145 197.67 97.9778 197.391 97.7093 197.016C97.4451 196.641 97.313 196.168 97.313 195.597V185.83ZM104.159 201.682C103.903 201.682 103.675 201.661 103.475 201.618C103.275 201.58 103.136 201.541 103.059 201.503L103.443 200.173C103.809 200.267 104.133 200.301 104.415 200.276C104.696 200.25 104.945 200.124 105.162 199.898C105.384 199.677 105.586 199.317 105.77 198.818L106.051 198.051L102.42 188.182H104.057L106.767 196.006H106.869L109.579 188.182H111.216L107.048 199.432C106.861 199.939 106.628 200.359 106.351 200.691C106.074 201.028 105.753 201.277 105.386 201.439C105.024 201.601 104.615 201.682 104.159 201.682ZM122.258 198.205C121.372 198.205 120.594 197.994 119.925 197.572C119.26 197.15 118.74 196.56 118.365 195.801C117.994 195.043 117.809 194.156 117.809 193.142C117.809 192.119 117.994 191.227 118.365 190.464C118.74 189.701 119.26 189.109 119.925 188.687C120.594 188.265 121.372 188.054 122.258 188.054C123.144 188.054 123.92 188.265 124.585 188.687C125.254 189.109 125.774 189.701 126.144 190.464C126.519 191.227 126.707 192.119 126.707 193.142C126.707 194.156 126.519 195.043 126.144 195.801C125.774 196.56 125.254 197.15 124.585 197.572C123.92 197.994 123.144 198.205 122.258 198.205ZM122.258 196.849C122.931 196.849 123.485 196.677 123.92 196.332C124.355 195.987 124.676 195.533 124.885 194.97C125.094 194.408 125.198 193.798 125.198 193.142C125.198 192.486 125.094 191.874 124.885 191.308C124.676 190.741 124.355 190.283 123.92 189.933C123.485 189.584 122.931 189.409 122.258 189.409C121.585 189.409 121.031 189.584 120.596 189.933C120.161 190.283 119.84 190.741 119.631 191.308C119.422 191.874 119.318 192.486 119.318 193.142C119.318 193.798 119.422 194.408 119.631 194.97C119.84 195.533 120.161 195.987 120.596 196.332C121.031 196.677 121.585 196.849 122.258 196.849ZM130.518 192.094V198H129.01V188.182H130.467V189.716H130.595C130.825 189.217 131.174 188.817 131.643 188.514C132.112 188.207 132.717 188.054 133.458 188.054C134.123 188.054 134.705 188.19 135.203 188.463C135.702 188.732 136.09 189.141 136.367 189.69C136.644 190.236 136.782 190.926 136.782 191.761V198H135.274V191.864C135.274 191.092 135.074 190.491 134.673 190.061C134.272 189.626 133.723 189.409 133.024 189.409C132.542 189.409 132.112 189.513 131.733 189.722C131.358 189.931 131.061 190.236 130.844 190.636C130.627 191.037 130.518 191.523 130.518 192.094ZM148.871 188.182V189.46H143.783V188.182H148.871ZM145.266 185.83H146.775V195.188C146.775 195.614 146.836 195.933 146.96 196.146C147.088 196.355 147.25 196.496 147.446 196.568C147.646 196.636 147.857 196.67 148.079 196.67C148.245 196.67 148.381 196.662 148.488 196.645C148.594 196.624 148.68 196.607 148.743 196.594L149.05 197.949C148.948 197.987 148.805 198.026 148.622 198.064C148.439 198.107 148.206 198.128 147.925 198.128C147.499 198.128 147.081 198.036 146.672 197.853C146.268 197.67 145.931 197.391 145.662 197.016C145.398 196.641 145.266 196.168 145.266 195.597V185.83ZM152.86 192.094V198H151.351V184.909H152.86V189.716H152.988C153.218 189.209 153.563 188.806 154.023 188.508C154.488 188.205 155.106 188.054 155.877 188.054C156.546 188.054 157.132 188.188 157.635 188.457C158.138 188.721 158.528 189.128 158.805 189.678C159.086 190.223 159.226 190.918 159.226 191.761V198H157.718V191.864C157.718 191.084 157.515 190.481 157.111 190.055C156.71 189.624 156.154 189.409 155.442 189.409C154.948 189.409 154.505 189.513 154.113 189.722C153.725 189.931 153.418 190.236 153.192 190.636C152.971 191.037 152.86 191.523 152.86 192.094ZM166.103 198.205C165.157 198.205 164.341 197.996 163.654 197.578C162.973 197.156 162.446 196.568 162.076 195.814C161.709 195.055 161.526 194.173 161.526 193.168C161.526 192.162 161.709 191.276 162.076 190.509C162.446 189.737 162.962 189.136 163.623 188.706C164.287 188.271 165.063 188.054 165.949 188.054C166.461 188.054 166.966 188.139 167.464 188.31C167.963 188.48 168.417 188.757 168.826 189.141C169.235 189.52 169.561 190.023 169.804 190.649C170.047 191.276 170.168 192.047 170.168 192.963V193.602H162.6V192.298H168.634C168.634 191.744 168.523 191.25 168.301 190.815C168.084 190.381 167.773 190.038 167.368 189.786C166.968 189.535 166.495 189.409 165.949 189.409C165.348 189.409 164.828 189.558 164.39 189.857C163.955 190.151 163.62 190.534 163.386 191.007C163.152 191.48 163.034 191.987 163.034 192.528V193.398C163.034 194.139 163.162 194.768 163.418 195.283C163.678 195.795 164.038 196.185 164.498 196.453C164.958 196.717 165.493 196.849 166.103 196.849C166.499 196.849 166.857 196.794 167.176 196.683C167.5 196.568 167.779 196.398 168.014 196.172C168.248 195.942 168.429 195.656 168.557 195.315L170.015 195.724C169.861 196.219 169.603 196.653 169.241 197.028C168.879 197.399 168.431 197.689 167.899 197.898C167.366 198.102 166.767 198.205 166.103 198.205ZM179.75 198L176.758 188.182H178.343L180.466 195.699H180.568L182.664 188.182H184.275L186.346 195.673H186.449L188.571 188.182H190.156L187.164 198H185.681L183.534 190.457H183.38L181.233 198H179.75ZM195.933 198.205C194.987 198.205 194.171 197.996 193.485 197.578C192.803 197.156 192.276 196.568 191.906 195.814C191.539 195.055 191.356 194.173 191.356 193.168C191.356 192.162 191.539 191.276 191.906 190.509C192.276 189.737 192.792 189.136 193.453 188.706C194.117 188.271 194.893 188.054 195.779 188.054C196.291 188.054 196.796 188.139 197.294 188.31C197.793 188.48 198.247 188.757 198.656 189.141C199.065 189.52 199.391 190.023 199.634 190.649C199.877 191.276 199.998 192.047 199.998 192.963V193.602H192.43V192.298H198.464C198.464 191.744 198.353 191.25 198.132 190.815C197.914 190.381 197.603 190.038 197.198 189.786C196.798 189.535 196.325 189.409 195.779 189.409C195.178 189.409 194.659 189.558 194.22 189.857C193.785 190.151 193.45 190.534 193.216 191.007C192.982 191.48 192.865 191.987 192.865 192.528V193.398C192.865 194.139 192.992 194.768 193.248 195.283C193.508 195.795 193.868 196.185 194.328 196.453C194.789 196.717 195.323 196.849 195.933 196.849C196.329 196.849 196.687 196.794 197.007 196.683C197.33 196.568 197.61 196.398 197.844 196.172C198.078 195.942 198.259 195.656 198.387 195.315L199.845 195.724C199.691 196.219 199.433 196.653 199.071 197.028C198.709 197.399 198.262 197.689 197.729 197.898C197.196 198.102 196.597 198.205 195.933 198.205ZM202.497 198V184.909H204.006V189.741H204.134C204.244 189.571 204.398 189.354 204.594 189.089C204.794 188.821 205.08 188.582 205.45 188.374C205.825 188.161 206.333 188.054 206.972 188.054C207.798 188.054 208.527 188.261 209.158 188.674C209.789 189.087 210.281 189.673 210.634 190.432C210.988 191.19 211.165 192.085 211.165 193.116C211.165 194.156 210.988 195.058 210.634 195.82C210.281 196.579 209.791 197.167 209.164 197.585C208.538 197.998 207.816 198.205 206.997 198.205C206.367 198.205 205.862 198.1 205.482 197.891C205.103 197.678 204.811 197.437 204.607 197.169C204.402 196.896 204.244 196.67 204.134 196.491H203.955V198H202.497ZM203.98 193.091C203.98 193.832 204.089 194.487 204.306 195.053C204.524 195.616 204.841 196.057 205.259 196.376C205.676 196.692 206.188 196.849 206.793 196.849C207.423 196.849 207.95 196.683 208.372 196.351C208.798 196.014 209.117 195.562 209.33 194.996C209.548 194.425 209.656 193.79 209.656 193.091C209.656 192.401 209.55 191.778 209.337 191.224C209.128 190.666 208.811 190.225 208.384 189.901C207.963 189.573 207.432 189.409 206.793 189.409C206.179 189.409 205.664 189.565 205.246 189.876C204.828 190.183 204.513 190.613 204.3 191.167C204.087 191.717 203.98 192.358 203.98 193.091ZM221.424 198.23C220.802 198.23 220.237 198.113 219.73 197.879C219.223 197.64 218.82 197.297 218.522 196.849C218.224 196.398 218.075 195.852 218.075 195.213C218.075 194.651 218.186 194.195 218.407 193.845C218.629 193.491 218.925 193.214 219.296 193.014C219.666 192.814 220.075 192.665 220.523 192.567C220.975 192.464 221.428 192.384 221.884 192.324C222.481 192.247 222.965 192.19 223.335 192.151C223.71 192.109 223.983 192.038 224.154 191.94C224.328 191.842 224.416 191.672 224.416 191.429V191.378C224.416 190.747 224.243 190.257 223.898 189.908C223.557 189.558 223.039 189.384 222.345 189.384C221.624 189.384 221.06 189.541 220.651 189.857C220.242 190.172 219.954 190.509 219.788 190.866L218.356 190.355C218.612 189.759 218.953 189.294 219.379 188.962C219.809 188.625 220.278 188.391 220.785 188.259C221.296 188.122 221.799 188.054 222.294 188.054C222.609 188.054 222.971 188.092 223.38 188.169C223.794 188.241 224.192 188.393 224.575 188.623C224.963 188.853 225.285 189.2 225.541 189.665C225.796 190.129 225.924 190.751 225.924 191.531V198H224.416V196.67H224.339C224.237 196.884 224.066 197.112 223.828 197.354C223.589 197.597 223.271 197.804 222.875 197.974C222.479 198.145 221.995 198.23 221.424 198.23ZM221.654 196.875C222.251 196.875 222.754 196.758 223.163 196.523C223.576 196.289 223.887 195.987 224.096 195.616C224.309 195.245 224.416 194.855 224.416 194.446V193.065C224.352 193.142 224.211 193.212 223.994 193.276C223.781 193.336 223.534 193.389 223.252 193.436C222.975 193.479 222.705 193.517 222.441 193.551C222.181 193.581 221.97 193.607 221.808 193.628C221.416 193.679 221.049 193.762 220.708 193.877C220.372 193.988 220.099 194.156 219.89 194.382C219.686 194.604 219.583 194.906 219.583 195.29C219.583 195.814 219.777 196.21 220.165 196.479C220.557 196.743 221.053 196.875 221.654 196.875ZM230.186 192.094V198H228.678V188.182H230.135V189.716H230.263C230.493 189.217 230.842 188.817 231.311 188.514C231.78 188.207 232.385 188.054 233.126 188.054C233.791 188.054 234.373 188.19 234.871 188.463C235.37 188.732 235.758 189.141 236.035 189.69C236.312 190.236 236.45 190.926 236.45 191.761V198H234.942V191.864C234.942 191.092 234.741 190.491 234.341 190.061C233.94 189.626 233.391 189.409 232.692 189.409C232.21 189.409 231.78 189.513 231.401 189.722C231.026 189.931 230.729 190.236 230.512 190.636C230.295 191.037 230.186 191.523 230.186 192.094ZM242.914 198.205C242.096 198.205 241.374 197.998 240.747 197.585C240.121 197.167 239.631 196.579 239.277 195.82C238.923 195.058 238.747 194.156 238.747 193.116C238.747 192.085 238.923 191.19 239.277 190.432C239.631 189.673 240.123 189.087 240.754 188.674C241.384 188.261 242.113 188.054 242.94 188.054C243.579 188.054 244.084 188.161 244.455 188.374C244.83 188.582 245.115 188.821 245.311 189.089C245.512 189.354 245.667 189.571 245.778 189.741H245.906V184.909H247.414V198H245.957V196.491H245.778C245.667 196.67 245.509 196.896 245.305 197.169C245.1 197.437 244.808 197.678 244.429 197.891C244.05 198.1 243.545 198.205 242.914 198.205ZM243.119 196.849C243.724 196.849 244.235 196.692 244.653 196.376C245.07 196.057 245.388 195.616 245.605 195.053C245.823 194.487 245.931 193.832 245.931 193.091C245.931 192.358 245.825 191.717 245.612 191.167C245.399 190.613 245.083 190.183 244.666 189.876C244.248 189.565 243.732 189.409 243.119 189.409C242.48 189.409 241.947 189.573 241.521 189.901C241.099 190.225 240.781 190.666 240.568 191.224C240.36 191.778 240.255 192.401 240.255 193.091C240.255 193.79 240.362 194.425 240.575 194.996C240.792 195.562 241.112 196.014 241.534 196.351C241.96 196.683 242.488 196.849 243.119 196.849ZM259.821 188.182V189.46H254.529V188.182H259.821ZM256.114 198V186.827C256.114 186.264 256.246 185.795 256.51 185.42C256.774 185.045 257.117 184.764 257.539 184.577C257.961 184.389 258.406 184.295 258.875 184.295C259.246 184.295 259.548 184.325 259.783 184.385C260.017 184.445 260.192 184.5 260.307 184.551L259.872 185.855C259.796 185.83 259.689 185.798 259.553 185.759C259.421 185.721 259.246 185.702 259.029 185.702C258.53 185.702 258.17 185.827 257.948 186.079C257.731 186.33 257.622 186.699 257.622 187.185V198H256.114ZM265.52 198.205C264.633 198.205 263.856 197.994 263.187 197.572C262.522 197.15 262.002 196.56 261.627 195.801C261.256 195.043 261.071 194.156 261.071 193.142C261.071 192.119 261.256 191.227 261.627 190.464C262.002 189.701 262.522 189.109 263.187 188.687C263.856 188.265 264.633 188.054 265.52 188.054C266.406 188.054 267.182 188.265 267.846 188.687C268.515 189.109 269.035 189.701 269.406 190.464C269.781 191.227 269.969 192.119 269.969 193.142C269.969 194.156 269.781 195.043 269.406 195.801C269.035 196.56 268.515 197.15 267.846 197.572C267.182 197.994 266.406 198.205 265.52 198.205ZM265.52 196.849C266.193 196.849 266.747 196.677 267.182 196.332C267.616 195.987 267.938 195.533 268.147 194.97C268.356 194.408 268.46 193.798 268.46 193.142C268.46 192.486 268.356 191.874 268.147 191.308C267.938 190.741 267.616 190.283 267.182 189.933C266.747 189.584 266.193 189.409 265.52 189.409C264.846 189.409 264.292 189.584 263.858 189.933C263.423 190.283 263.101 190.741 262.893 191.308C262.684 191.874 262.579 192.486 262.579 193.142C262.579 193.798 262.684 194.408 262.893 194.97C263.101 195.533 263.423 195.987 263.858 196.332C264.292 196.677 264.846 196.849 265.52 196.849ZM272.271 198V188.182H273.729V189.665H273.831C274.01 189.179 274.334 188.785 274.803 188.482C275.271 188.18 275.8 188.028 276.388 188.028C276.499 188.028 276.637 188.031 276.803 188.035C276.969 188.039 277.095 188.045 277.18 188.054V189.588C277.129 189.575 277.012 189.556 276.829 189.531C276.65 189.501 276.46 189.486 276.26 189.486C275.783 189.486 275.357 189.586 274.982 189.786C274.611 189.982 274.317 190.255 274.099 190.604C273.886 190.95 273.78 191.344 273.78 191.787V198H272.271ZM284.031 201.682V188.182H285.488V189.741H285.667C285.778 189.571 285.932 189.354 286.128 189.089C286.328 188.821 286.613 188.582 286.984 188.374C287.359 188.161 287.866 188.054 288.506 188.054C289.332 188.054 290.061 188.261 290.692 188.674C291.322 189.087 291.814 189.673 292.168 190.432C292.522 191.19 292.699 192.085 292.699 193.116C292.699 194.156 292.522 195.058 292.168 195.82C291.814 196.579 291.324 197.167 290.698 197.585C290.072 197.998 289.349 198.205 288.531 198.205C287.9 198.205 287.395 198.1 287.016 197.891C286.637 197.678 286.345 197.437 286.14 197.169C285.936 196.896 285.778 196.67 285.667 196.491H285.54V201.682H284.031ZM285.514 193.091C285.514 193.832 285.623 194.487 285.84 195.053C286.057 195.616 286.375 196.057 286.792 196.376C287.21 196.692 287.721 196.849 288.327 196.849C288.957 196.849 289.483 196.683 289.905 196.351C290.331 196.014 290.651 195.562 290.864 194.996C291.081 194.425 291.19 193.79 291.19 193.091C291.19 192.401 291.084 191.778 290.871 191.224C290.662 190.666 290.344 190.225 289.918 189.901C289.496 189.573 288.966 189.409 288.327 189.409C287.713 189.409 287.197 189.565 286.78 189.876C286.362 190.183 286.047 190.613 285.834 191.167C285.621 191.717 285.514 192.358 285.514 193.091ZM295 198V188.182H296.457V189.665H296.559C296.738 189.179 297.062 188.785 297.531 188.482C298 188.18 298.528 188.028 299.116 188.028C299.227 188.028 299.366 188.031 299.532 188.035C299.698 188.039 299.824 188.045 299.909 188.054V189.588C299.858 189.575 299.741 189.556 299.557 189.531C299.378 189.501 299.189 189.486 298.988 189.486C298.511 189.486 298.085 189.586 297.71 189.786C297.339 189.982 297.045 190.255 296.828 190.604C296.615 190.95 296.508 191.344 296.508 191.787V198H295ZM301.697 198V188.182H303.206V198H301.697ZM302.464 186.545C302.17 186.545 301.917 186.445 301.703 186.245C301.495 186.045 301.39 185.804 301.39 185.523C301.39 185.241 301.495 185.001 301.703 184.8C301.917 184.6 302.17 184.5 302.464 184.5C302.758 184.5 303.01 184.6 303.218 184.8C303.431 185.001 303.538 185.241 303.538 185.523C303.538 185.804 303.431 186.045 303.218 186.245C303.01 186.445 302.758 186.545 302.464 186.545ZM307.477 192.094V198H305.969V188.182H307.426V189.716H307.554C307.784 189.217 308.133 188.817 308.602 188.514C309.071 188.207 309.676 188.054 310.417 188.054C311.082 188.054 311.664 188.19 312.162 188.463C312.661 188.732 313.049 189.141 313.326 189.69C313.603 190.236 313.741 190.926 313.741 191.761V198H312.233V191.864C312.233 191.092 312.032 190.491 311.632 190.061C311.231 189.626 310.682 189.409 309.983 189.409C309.501 189.409 309.071 189.513 308.692 189.722C308.317 189.931 308.02 190.236 307.803 190.636C307.586 191.037 307.477 191.523 307.477 192.094ZM320.768 188.182V189.46H315.68V188.182H320.768ZM317.163 185.83H318.671V195.188C318.671 195.614 318.733 195.933 318.857 196.146C318.984 196.355 319.146 196.496 319.342 196.568C319.543 196.636 319.754 196.67 319.975 196.67C320.141 196.67 320.278 196.662 320.384 196.645C320.491 196.624 320.576 196.607 320.64 196.594L320.947 197.949C320.844 197.987 320.702 198.026 320.518 198.064C320.335 198.107 320.103 198.128 319.822 198.128C319.396 198.128 318.978 198.036 318.569 197.853C318.164 197.67 317.827 197.391 317.559 197.016C317.295 196.641 317.163 196.168 317.163 195.597V185.83ZM323.037 198V188.182H324.545V198H323.037ZM323.804 186.545C323.51 186.545 323.256 186.445 323.043 186.245C322.835 186.045 322.73 185.804 322.73 185.523C322.73 185.241 322.835 185.001 323.043 184.8C323.256 184.6 323.51 184.5 323.804 184.5C324.098 184.5 324.349 184.6 324.558 184.8C324.771 185.001 324.878 185.241 324.878 185.523C324.878 185.804 324.771 186.045 324.558 186.245C324.349 186.445 324.098 186.545 323.804 186.545ZM328.817 192.094V198H327.308V188.182H328.766V189.716H328.894C329.124 189.217 329.473 188.817 329.942 188.514C330.411 188.207 331.016 188.054 331.757 188.054C332.422 188.054 333.004 188.19 333.502 188.463C334.001 188.732 334.389 189.141 334.666 189.69C334.943 190.236 335.081 190.926 335.081 191.761V198H333.573V191.864C333.573 191.092 333.372 190.491 332.972 190.061C332.571 189.626 332.021 189.409 331.323 189.409C330.841 189.409 330.411 189.513 330.031 189.722C329.656 189.931 329.36 190.236 329.143 190.636C328.926 191.037 328.817 191.523 328.817 192.094ZM341.801 201.886C341.072 201.886 340.446 201.793 339.922 201.605C339.397 201.422 338.961 201.179 338.611 200.876C338.266 200.578 337.991 200.259 337.787 199.918L338.988 199.074C339.125 199.253 339.297 199.457 339.506 199.688C339.715 199.922 340 200.124 340.363 200.295C340.729 200.469 341.208 200.557 341.801 200.557C342.593 200.557 343.248 200.365 343.763 199.982C344.279 199.598 344.537 198.997 344.537 198.179V196.185H344.409C344.298 196.364 344.14 196.585 343.936 196.849C343.735 197.109 343.446 197.342 343.066 197.546C342.691 197.746 342.184 197.847 341.545 197.847C340.752 197.847 340.041 197.659 339.41 197.284C338.784 196.909 338.287 196.364 337.921 195.648C337.559 194.932 337.377 194.062 337.377 193.04C337.377 192.034 337.554 191.158 337.908 190.413C338.262 189.663 338.754 189.083 339.385 188.674C340.015 188.261 340.744 188.054 341.571 188.054C342.21 188.054 342.717 188.161 343.092 188.374C343.471 188.582 343.761 188.821 343.961 189.089C344.166 189.354 344.324 189.571 344.434 189.741H344.588V188.182H346.045V198.281C346.045 199.125 345.853 199.811 345.47 200.339C345.091 200.872 344.579 201.262 343.936 201.509C343.297 201.761 342.585 201.886 341.801 201.886ZM341.75 196.491C342.355 196.491 342.866 196.353 343.284 196.076C343.701 195.799 344.019 195.401 344.236 194.881C344.453 194.361 344.562 193.739 344.562 193.014C344.562 192.307 344.456 191.683 344.243 191.141C344.029 190.6 343.714 190.176 343.297 189.869C342.879 189.562 342.363 189.409 341.75 189.409C341.11 189.409 340.578 189.571 340.152 189.895C339.73 190.219 339.412 190.653 339.199 191.199C338.99 191.744 338.886 192.349 338.886 193.014C338.886 193.696 338.993 194.299 339.206 194.823C339.423 195.343 339.743 195.752 340.164 196.05C340.591 196.344 341.119 196.491 341.75 196.491ZM349.906 198.102C349.591 198.102 349.32 197.989 349.094 197.763C348.868 197.538 348.755 197.267 348.755 196.952C348.755 196.636 348.868 196.366 349.094 196.14C349.32 195.914 349.591 195.801 349.906 195.801C350.221 195.801 350.492 195.914 350.718 196.14C350.944 196.366 351.056 196.636 351.056 196.952C351.056 197.161 351.003 197.352 350.897 197.527C350.794 197.702 350.656 197.842 350.481 197.949C350.311 198.051 350.119 198.102 349.906 198.102ZM359.031 198V184.909H360.616V196.594H366.701V198H359.031ZM373.067 198.205C372.121 198.205 371.305 197.996 370.619 197.578C369.938 197.156 369.411 196.568 369.04 195.814C368.674 195.055 368.491 194.173 368.491 193.168C368.491 192.162 368.674 191.276 369.04 190.509C369.411 189.737 369.927 189.136 370.587 188.706C371.252 188.271 372.028 188.054 372.914 188.054C373.425 188.054 373.93 188.139 374.429 188.31C374.928 188.48 375.381 188.757 375.79 189.141C376.2 189.52 376.526 190.023 376.768 190.649C377.011 191.276 377.133 192.047 377.133 192.963V193.602H369.565V192.298H375.599C375.599 191.744 375.488 191.25 375.266 190.815C375.049 190.381 374.738 190.038 374.333 189.786C373.933 189.535 373.46 189.409 372.914 189.409C372.313 189.409 371.793 189.558 371.354 189.857C370.92 190.151 370.585 190.534 370.351 191.007C370.116 191.48 369.999 191.987 369.999 192.528V193.398C369.999 194.139 370.127 194.768 370.383 195.283C370.643 195.795 371.003 196.185 371.463 196.453C371.923 196.717 372.458 196.849 373.067 196.849C373.464 196.849 373.822 196.794 374.141 196.683C374.465 196.568 374.744 196.398 374.979 196.172C375.213 195.942 375.394 195.656 375.522 195.315L376.979 195.724C376.826 196.219 376.568 196.653 376.206 197.028C375.844 197.399 375.396 197.689 374.864 197.898C374.331 198.102 373.732 198.205 373.067 198.205ZM382.317 198.23C381.695 198.23 381.13 198.113 380.623 197.879C380.116 197.64 379.713 197.297 379.415 196.849C379.116 196.398 378.967 195.852 378.967 195.213C378.967 194.651 379.078 194.195 379.3 193.845C379.521 193.491 379.817 193.214 380.188 193.014C380.559 192.814 380.968 192.665 381.415 192.567C381.867 192.464 382.321 192.384 382.777 192.324C383.374 192.247 383.857 192.19 384.228 192.151C384.603 192.109 384.876 192.038 385.046 191.94C385.221 191.842 385.308 191.672 385.308 191.429V191.378C385.308 190.747 385.136 190.257 384.79 189.908C384.45 189.558 383.932 189.384 383.237 189.384C382.517 189.384 381.952 189.541 381.543 189.857C381.134 190.172 380.847 190.509 380.68 190.866L379.249 190.355C379.504 189.759 379.845 189.294 380.271 188.962C380.702 188.625 381.17 188.391 381.678 188.259C382.189 188.122 382.692 188.054 383.186 188.054C383.501 188.054 383.864 188.092 384.273 188.169C384.686 188.241 385.085 188.393 385.468 188.623C385.856 188.853 386.178 189.2 386.433 189.665C386.689 190.129 386.817 190.751 386.817 191.531V198H385.308V196.67H385.232C385.129 196.884 384.959 197.112 384.72 197.354C384.482 197.597 384.164 197.804 383.768 197.974C383.371 198.145 382.888 198.23 382.317 198.23ZM382.547 196.875C383.143 196.875 383.646 196.758 384.055 196.523C384.469 196.289 384.78 195.987 384.989 195.616C385.202 195.245 385.308 194.855 385.308 194.446V193.065C385.244 193.142 385.104 193.212 384.886 193.276C384.673 193.336 384.426 193.389 384.145 193.436C383.868 193.479 383.597 193.517 383.333 193.551C383.073 193.581 382.862 193.607 382.7 193.628C382.308 193.679 381.942 193.762 381.601 193.877C381.264 193.988 380.991 194.156 380.783 194.382C380.578 194.604 380.476 194.906 380.476 195.29C380.476 195.814 380.67 196.21 381.058 196.479C381.45 196.743 381.946 196.875 382.547 196.875ZM389.57 198V188.182H391.028V189.665H391.13C391.309 189.179 391.633 188.785 392.101 188.482C392.57 188.18 393.099 188.028 393.687 188.028C393.797 188.028 393.936 188.031 394.102 188.035C394.268 188.039 394.394 188.045 394.479 188.054V189.588C394.428 189.575 394.311 189.556 394.128 189.531C393.949 189.501 393.759 189.486 393.559 189.486C393.081 189.486 392.655 189.586 392.28 189.786C391.91 189.982 391.616 190.255 391.398 190.604C391.185 190.95 391.079 191.344 391.079 191.787V198H389.57ZM397.776 192.094V198H396.267V188.182H397.725V189.716H397.853C398.083 189.217 398.432 188.817 398.901 188.514C399.37 188.207 399.975 188.054 400.716 188.054C401.381 188.054 401.963 188.19 402.461 188.463C402.96 188.732 403.348 189.141 403.625 189.69C403.902 190.236 404.04 190.926 404.04 191.761V198H402.532V191.864C402.532 191.092 402.331 190.491 401.931 190.061C401.53 189.626 400.98 189.409 400.282 189.409C399.8 189.409 399.37 189.513 398.99 189.722C398.615 189.931 398.319 190.236 398.102 190.636C397.885 191.037 397.776 191.523 397.776 192.094ZM50.8892 220.094V226H49.3807V212.909H50.8892V217.716H51.017C51.2472 217.209 51.5923 216.806 52.0526 216.508C52.517 216.205 53.1349 216.054 53.9062 216.054C54.5753 216.054 55.1612 216.188 55.6641 216.457C56.1669 216.721 56.5568 217.128 56.8338 217.678C57.1151 218.223 57.2557 218.918 57.2557 219.761V226H55.7472V219.864C55.7472 219.084 55.5447 218.481 55.1399 218.055C54.7393 217.624 54.1832 217.409 53.4716 217.409C52.9773 217.409 52.5341 217.513 52.142 217.722C51.7543 217.931 51.4474 218.236 51.2216 218.636C51 219.037 50.8892 219.523 50.8892 220.094ZM64.0041 226.205C63.1177 226.205 62.34 225.994 61.671 225.572C61.0062 225.15 60.4863 224.56 60.1113 223.801C59.7406 223.043 59.5552 222.156 59.5552 221.142C59.5552 220.119 59.7406 219.227 60.1113 218.464C60.4863 217.701 61.0062 217.109 61.671 216.687C62.34 216.265 63.1177 216.054 64.0041 216.054C64.8904 216.054 65.666 216.265 66.3308 216.687C66.9998 217.109 67.5197 217.701 67.8904 218.464C68.2654 219.227 68.4529 220.119 68.4529 221.142C68.4529 222.156 68.2654 223.043 67.8904 223.801C67.5197 224.56 66.9998 225.15 66.3308 225.572C65.666 225.994 64.8904 226.205 64.0041 226.205ZM64.0041 224.849C64.6774 224.849 65.2314 224.677 65.666 224.332C66.1007 223.987 66.4224 223.533 66.6312 222.97C66.84 222.408 66.9444 221.798 66.9444 221.142C66.9444 220.486 66.84 219.874 66.6312 219.308C66.4224 218.741 66.1007 218.283 65.666 217.933C65.2314 217.584 64.6774 217.409 64.0041 217.409C63.3308 217.409 62.7768 217.584 62.3422 217.933C61.9075 218.283 61.5858 218.741 61.377 219.308C61.1681 219.874 61.0637 220.486 61.0637 221.142C61.0637 221.798 61.1681 222.408 61.377 222.97C61.5858 223.533 61.9075 223.987 62.3422 224.332C62.7768 224.677 63.3308 224.849 64.0041 224.849ZM72.6461 226L69.6547 216.182H71.2399L73.362 223.699H73.4643L75.5609 216.182H77.1717L79.2427 223.673H79.345L81.4672 216.182H83.0524L80.0609 226H78.5779L76.4302 218.457H76.2768L74.1291 226H72.6461ZM94.3791 216.182V217.46H89.291V216.182H94.3791ZM90.774 213.83H92.2825V223.188C92.2825 223.614 92.3443 223.933 92.4679 224.146C92.5957 224.355 92.7576 224.496 92.9537 224.568C93.1539 224.636 93.3649 224.67 93.5865 224.67C93.7527 224.67 93.889 224.662 93.9956 224.645C94.1021 224.624 94.1873 224.607 94.2512 224.594L94.5581 225.949C94.4558 225.987 94.313 226.026 94.1298 226.064C93.9466 226.107 93.7143 226.128 93.4331 226.128C93.0069 226.128 92.5893 226.036 92.1802 225.853C91.7754 225.67 91.4387 225.391 91.1703 225.016C90.9061 224.641 90.774 224.168 90.774 223.597V213.83ZM100.531 226.205C99.6451 226.205 98.8674 225.994 98.1983 225.572C97.5336 225.15 97.0137 224.56 96.6387 223.801C96.2679 223.043 96.0826 222.156 96.0826 221.142C96.0826 220.119 96.2679 219.227 96.6387 218.464C97.0137 217.701 97.5336 217.109 98.1983 216.687C98.8674 216.265 99.6451 216.054 100.531 216.054C101.418 216.054 102.193 216.265 102.858 216.687C103.527 217.109 104.047 217.701 104.418 218.464C104.793 219.227 104.98 220.119 104.98 221.142C104.98 222.156 104.793 223.043 104.418 223.801C104.047 224.56 103.527 225.15 102.858 225.572C102.193 225.994 101.418 226.205 100.531 226.205ZM100.531 224.849C101.205 224.849 101.759 224.677 102.193 224.332C102.628 223.987 102.95 223.533 103.159 222.97C103.367 222.408 103.472 221.798 103.472 221.142C103.472 220.486 103.367 219.874 103.159 219.308C102.95 218.741 102.628 218.283 102.193 217.933C101.759 217.584 101.205 217.409 100.531 217.409C99.8581 217.409 99.3042 217.584 98.8695 217.933C98.4348 218.283 98.1131 218.741 97.9043 219.308C97.6955 219.874 97.5911 220.486 97.5911 221.142C97.5911 221.798 97.6955 222.408 97.9043 222.97C98.1131 223.533 98.4348 223.987 98.8695 224.332C99.3042 224.677 99.8581 224.849 100.531 224.849ZM114.57 226L111.578 216.182H113.164L115.286 223.699H115.388L117.485 216.182H119.096L121.167 223.673H121.269L123.391 216.182H124.976L121.985 226H120.502L118.354 218.457H118.201L116.053 226H114.57ZM130.625 226.205C129.739 226.205 128.961 225.994 128.292 225.572C127.627 225.15 127.107 224.56 126.732 223.801C126.362 223.043 126.176 222.156 126.176 221.142C126.176 220.119 126.362 219.227 126.732 218.464C127.107 217.701 127.627 217.109 128.292 216.687C128.961 216.265 129.739 216.054 130.625 216.054C131.512 216.054 132.287 216.265 132.952 216.687C133.621 217.109 134.141 217.701 134.512 218.464C134.887 219.227 135.074 220.119 135.074 221.142C135.074 222.156 134.887 223.043 134.512 223.801C134.141 224.56 133.621 225.15 132.952 225.572C132.287 225.994 131.512 226.205 130.625 226.205ZM130.625 224.849C131.298 224.849 131.852 224.677 132.287 224.332C132.722 223.987 133.044 223.533 133.252 222.97C133.461 222.408 133.566 221.798 133.566 221.142C133.566 220.486 133.461 219.874 133.252 219.308C133.044 218.741 132.722 218.283 132.287 217.933C131.852 217.584 131.298 217.409 130.625 217.409C129.952 217.409 129.398 217.584 128.963 217.933C128.529 218.283 128.207 218.741 127.998 219.308C127.789 219.874 127.685 220.486 127.685 221.142C127.685 221.798 127.789 222.408 127.998 222.97C128.207 223.533 128.529 223.987 128.963 224.332C129.398 224.677 129.952 224.849 130.625 224.849ZM137.377 226V216.182H138.834V217.665H138.936C139.115 217.179 139.439 216.785 139.908 216.482C140.377 216.18 140.905 216.028 141.493 216.028C141.604 216.028 141.743 216.031 141.909 216.035C142.075 216.039 142.201 216.045 142.286 216.054V217.588C142.235 217.575 142.118 217.556 141.934 217.531C141.755 217.501 141.566 217.486 141.365 217.486C140.888 217.486 140.462 217.586 140.087 217.786C139.716 217.982 139.422 218.255 139.205 218.604C138.992 218.95 138.885 219.344 138.885 219.787V226H137.377ZM145.48 222.42L145.455 220.554H145.762L150.057 216.182H151.923L147.347 220.81H147.219L145.48 222.42ZM144.074 226V212.909H145.583V226H144.074ZM150.313 226L146.477 221.142L147.551 220.094L152.23 226H150.313ZM158.928 226V216.182H160.436V226H158.928ZM159.695 214.545C159.401 214.545 159.147 214.445 158.934 214.245C158.725 214.045 158.621 213.804 158.621 213.523C158.621 213.241 158.725 213.001 158.934 212.8C159.147 212.6 159.401 212.5 159.695 212.5C159.989 212.5 160.24 212.6 160.449 212.8C160.662 213.001 160.768 213.241 160.768 213.523C160.768 213.804 160.662 214.045 160.449 214.245C160.24 214.445 159.989 214.545 159.695 214.545ZM164.708 220.094V226H163.199V216.182H164.656V217.716H164.784C165.014 217.217 165.364 216.817 165.833 216.514C166.301 216.207 166.906 216.054 167.648 216.054C168.313 216.054 168.894 216.19 169.393 216.463C169.892 216.732 170.279 217.141 170.556 217.69C170.833 218.236 170.972 218.926 170.972 219.761V226H169.463V219.864C169.463 219.092 169.263 218.491 168.862 218.061C168.462 217.626 167.912 217.409 167.213 217.409C166.732 217.409 166.301 217.513 165.922 217.722C165.547 217.931 165.251 218.236 165.034 218.636C164.816 219.037 164.708 219.523 164.708 220.094ZM180.581 212.909V226H178.995V212.909H180.581ZM185.063 212.909V226H183.555V212.909H185.063ZM189.335 212.909V226H187.826V212.909H189.335ZM198.285 221.986V216.182H199.794V226H198.285V224.338H198.183C197.953 224.837 197.595 225.261 197.109 225.61C196.623 225.955 196.009 226.128 195.268 226.128C194.654 226.128 194.109 225.994 193.632 225.725C193.154 225.452 192.779 225.043 192.507 224.498C192.234 223.948 192.097 223.256 192.097 222.42V216.182H193.606V222.318C193.606 223.034 193.806 223.605 194.207 224.031C194.612 224.457 195.127 224.67 195.754 224.67C196.129 224.67 196.51 224.575 196.898 224.383C197.29 224.191 197.618 223.897 197.882 223.501C198.151 223.104 198.285 222.599 198.285 221.986ZM209.511 218.381L208.156 218.764C208.071 218.538 207.945 218.319 207.779 218.106C207.617 217.888 207.395 217.71 207.114 217.569C206.833 217.428 206.473 217.358 206.034 217.358C205.433 217.358 204.932 217.496 204.532 217.773C204.135 218.046 203.937 218.393 203.937 218.815C203.937 219.19 204.074 219.487 204.346 219.704C204.619 219.921 205.045 220.102 205.625 220.247L207.082 220.605C207.96 220.818 208.614 221.144 209.044 221.583C209.475 222.018 209.69 222.578 209.69 223.264C209.69 223.827 209.528 224.33 209.204 224.773C208.885 225.216 208.437 225.565 207.862 225.821C207.287 226.077 206.618 226.205 205.855 226.205C204.853 226.205 204.025 225.987 203.368 225.553C202.712 225.118 202.297 224.483 202.122 223.648L203.554 223.29C203.69 223.818 203.948 224.214 204.327 224.479C204.711 224.743 205.211 224.875 205.829 224.875C206.532 224.875 207.091 224.726 207.504 224.428C207.922 224.125 208.13 223.763 208.13 223.341C208.13 223 208.011 222.714 207.772 222.484C207.534 222.25 207.167 222.075 206.673 221.96L205.037 221.577C204.137 221.364 203.477 221.033 203.055 220.586C202.637 220.134 202.429 219.57 202.429 218.892C202.429 218.338 202.584 217.848 202.895 217.422C203.211 216.996 203.639 216.661 204.18 216.418C204.725 216.175 205.343 216.054 206.034 216.054C207.005 216.054 207.768 216.267 208.322 216.693C208.88 217.119 209.277 217.682 209.511 218.381ZM216.231 216.182V217.46H211.143V216.182H216.231ZM212.626 213.83H214.134V223.188C214.134 223.614 214.196 223.933 214.319 224.146C214.447 224.355 214.609 224.496 214.805 224.568C215.006 224.636 215.216 224.67 215.438 224.67C215.604 224.67 215.741 224.662 215.847 224.645C215.954 224.624 216.039 224.607 216.103 224.594L216.41 225.949C216.307 225.987 216.165 226.026 215.981 226.064C215.798 226.107 215.566 226.128 215.285 226.128C214.858 226.128 214.441 226.036 214.032 225.853C213.627 225.67 213.29 225.391 213.022 225.016C212.758 224.641 212.626 224.168 212.626 223.597V213.83ZM218.5 226V216.182H219.957V217.665H220.059C220.238 217.179 220.562 216.785 221.031 216.482C221.5 216.18 222.028 216.028 222.616 216.028C222.727 216.028 222.866 216.031 223.032 216.035C223.198 216.039 223.324 216.045 223.409 216.054V217.588C223.358 217.575 223.241 217.556 223.057 217.531C222.878 217.501 222.689 217.486 222.488 217.486C222.011 217.486 221.585 217.586 221.21 217.786C220.839 217.982 220.545 218.255 220.328 218.604C220.115 218.95 220.008 219.344 220.008 219.787V226H218.5ZM228.086 226.23C227.464 226.23 226.9 226.113 226.392 225.879C225.885 225.64 225.483 225.297 225.184 224.849C224.886 224.398 224.737 223.852 224.737 223.213C224.737 222.651 224.848 222.195 225.069 221.845C225.291 221.491 225.587 221.214 225.958 221.014C226.328 220.814 226.738 220.665 227.185 220.567C227.637 220.464 228.091 220.384 228.547 220.324C229.143 220.247 229.627 220.19 229.998 220.151C230.373 220.109 230.645 220.038 230.816 219.94C230.99 219.842 231.078 219.672 231.078 219.429V219.378C231.078 218.747 230.905 218.257 230.56 217.908C230.219 217.558 229.701 217.384 229.007 217.384C228.287 217.384 227.722 217.541 227.313 217.857C226.904 218.172 226.616 218.509 226.45 218.866L225.018 218.355C225.274 217.759 225.615 217.294 226.041 216.962C226.471 216.625 226.94 216.391 227.447 216.259C227.958 216.122 228.461 216.054 228.956 216.054C229.271 216.054 229.633 216.092 230.042 216.169C230.456 216.241 230.854 216.393 231.238 216.623C231.625 216.853 231.947 217.2 232.203 217.665C232.458 218.129 232.586 218.751 232.586 219.531V226H231.078V224.67H231.001C230.899 224.884 230.728 225.112 230.49 225.354C230.251 225.597 229.934 225.804 229.537 225.974C229.141 226.145 228.657 226.23 228.086 226.23ZM228.316 224.875C228.913 224.875 229.416 224.758 229.825 224.523C230.238 224.289 230.549 223.987 230.758 223.616C230.971 223.245 231.078 222.855 231.078 222.446V221.065C231.014 221.142 230.873 221.212 230.656 221.276C230.443 221.336 230.196 221.389 229.914 221.436C229.637 221.479 229.367 221.517 229.103 221.551C228.843 221.581 228.632 221.607 228.47 221.628C228.078 221.679 227.711 221.762 227.37 221.877C227.034 221.988 226.761 222.156 226.552 222.382C226.348 222.604 226.245 222.906 226.245 223.29C226.245 223.814 226.439 224.21 226.827 224.479C227.219 224.743 227.716 224.875 228.316 224.875ZM239.61 216.182V217.46H234.521V216.182H239.61ZM236.004 213.83H237.513V223.188C237.513 223.614 237.575 223.933 237.698 224.146C237.826 224.355 237.988 224.496 238.184 224.568C238.384 224.636 238.595 224.67 238.817 224.67C238.983 224.67 239.119 224.662 239.226 224.645C239.333 224.624 239.418 224.607 239.482 224.594L239.789 225.949C239.686 225.987 239.544 226.026 239.36 226.064C239.177 226.107 238.945 226.128 238.664 226.128C238.237 226.128 237.82 226.036 237.411 225.853C237.006 225.67 236.669 225.391 236.401 225.016C236.137 224.641 236.004 224.168 236.004 223.597V213.83ZM245.762 226.205C244.876 226.205 244.098 225.994 243.429 225.572C242.764 225.15 242.244 224.56 241.869 223.801C241.498 223.043 241.313 222.156 241.313 221.142C241.313 220.119 241.498 219.227 241.869 218.464C242.244 217.701 242.764 217.109 243.429 216.687C244.098 216.265 244.876 216.054 245.762 216.054C246.648 216.054 247.424 216.265 248.089 216.687C248.758 217.109 249.278 217.701 249.648 218.464C250.023 219.227 250.211 220.119 250.211 221.142C250.211 222.156 250.023 223.043 249.648 223.801C249.278 224.56 248.758 225.15 248.089 225.572C247.424 225.994 246.648 226.205 245.762 226.205ZM245.762 224.849C246.435 224.849 246.989 224.677 247.424 224.332C247.858 223.987 248.18 223.533 248.389 222.97C248.598 222.408 248.702 221.798 248.702 221.142C248.702 220.486 248.598 219.874 248.389 219.308C248.18 218.741 247.858 218.283 247.424 217.933C246.989 217.584 246.435 217.409 245.762 217.409C245.089 217.409 244.535 217.584 244.1 217.933C243.665 218.283 243.344 218.741 243.135 219.308C242.926 219.874 242.822 220.486 242.822 221.142C242.822 221.798 242.926 222.408 243.135 222.97C243.344 223.533 243.665 223.987 244.1 224.332C244.535 224.677 245.089 224.849 245.762 224.849ZM252.513 226V216.182H253.971V217.665H254.073C254.252 217.179 254.576 216.785 255.045 216.482C255.513 216.18 256.042 216.028 256.63 216.028C256.741 216.028 256.879 216.031 257.045 216.035C257.212 216.039 257.337 216.045 257.423 216.054V217.588C257.371 217.575 257.254 217.556 257.071 217.531C256.892 217.501 256.702 217.486 256.502 217.486C256.025 217.486 255.599 217.586 255.224 217.786C254.853 217.982 254.559 218.255 254.342 218.604C254.129 218.95 254.022 219.344 254.022 219.787V226H252.513ZM260.336 224.21L260.233 224.901C260.161 225.386 260.05 225.906 259.901 226.46C259.756 227.014 259.605 227.536 259.447 228.026C259.29 228.516 259.16 228.906 259.057 229.196H257.907C257.962 228.923 258.035 228.563 258.124 228.116C258.214 227.668 258.303 227.168 258.393 226.614C258.486 226.064 258.563 225.501 258.623 224.926L258.699 224.21H260.336ZM268.398 226V212.909H272.821C273.848 212.909 274.688 213.094 275.339 213.465C275.996 213.832 276.482 214.328 276.797 214.955C277.112 215.581 277.27 216.28 277.27 217.051C277.27 217.822 277.112 218.523 276.797 219.154C276.486 219.785 276.004 220.288 275.352 220.663C274.7 221.033 273.865 221.219 272.847 221.219H269.676V219.812H272.795C273.499 219.812 274.063 219.691 274.489 219.448C274.915 219.205 275.224 218.877 275.416 218.464C275.612 218.046 275.71 217.575 275.71 217.051C275.71 216.527 275.612 216.058 275.416 215.645C275.224 215.232 274.913 214.908 274.483 214.673C274.053 214.435 273.482 214.315 272.77 214.315H269.983V226H268.398ZM281.127 220.094V226H279.619V212.909H281.127V217.716H281.255C281.485 217.209 281.831 216.806 282.291 216.508C282.755 216.205 283.373 216.054 284.145 216.054C284.814 216.054 285.4 216.188 285.902 216.457C286.405 216.721 286.795 217.128 287.072 217.678C287.353 218.223 287.494 218.918 287.494 219.761V226H285.985V219.864C285.985 219.084 285.783 218.481 285.378 218.055C284.978 217.624 284.422 217.409 283.71 217.409C283.216 217.409 282.772 217.513 282.38 217.722C281.993 217.931 281.686 218.236 281.46 218.636C281.238 219.037 281.127 219.523 281.127 220.094ZM294.242 226.205C293.356 226.205 292.578 225.994 291.909 225.572C291.244 225.15 290.725 224.56 290.35 223.801C289.979 223.043 289.794 222.156 289.794 221.142C289.794 220.119 289.979 219.227 290.35 218.464C290.725 217.701 291.244 217.109 291.909 216.687C292.578 216.265 293.356 216.054 294.242 216.054C295.129 216.054 295.904 216.265 296.569 216.687C297.238 217.109 297.758 217.701 298.129 218.464C298.504 219.227 298.691 220.119 298.691 221.142C298.691 222.156 298.504 223.043 298.129 223.801C297.758 224.56 297.238 225.15 296.569 225.572C295.904 225.994 295.129 226.205 294.242 226.205ZM294.242 224.849C294.916 224.849 295.47 224.677 295.904 224.332C296.339 223.987 296.661 223.533 296.869 222.97C297.078 222.408 297.183 221.798 297.183 221.142C297.183 220.486 297.078 219.874 296.869 219.308C296.661 218.741 296.339 218.283 295.904 217.933C295.47 217.584 294.916 217.409 294.242 217.409C293.569 217.409 293.015 217.584 292.58 217.933C292.146 218.283 291.824 218.741 291.615 219.308C291.406 219.874 291.302 220.486 291.302 221.142C291.302 221.798 291.406 222.408 291.615 222.97C291.824 223.533 292.146 223.987 292.58 224.332C293.015 224.677 293.569 224.849 294.242 224.849ZM305.264 216.182V217.46H300.176V216.182H305.264ZM301.659 213.83H303.167V223.188C303.167 223.614 303.229 223.933 303.353 224.146C303.48 224.355 303.642 224.496 303.838 224.568C304.039 224.636 304.25 224.67 304.471 224.67C304.637 224.67 304.774 224.662 304.88 224.645C304.987 224.624 305.072 224.607 305.136 224.594L305.443 225.949C305.341 225.987 305.198 226.026 305.015 226.064C304.831 226.107 304.599 226.128 304.318 226.128C303.892 226.128 303.474 226.036 303.065 225.853C302.66 225.67 302.324 225.391 302.055 225.016C301.791 224.641 301.659 224.168 301.659 223.597V213.83ZM311.416 226.205C310.53 226.205 309.752 225.994 309.083 225.572C308.418 225.15 307.898 224.56 307.523 223.801C307.153 223.043 306.967 222.156 306.967 221.142C306.967 220.119 307.153 219.227 307.523 218.464C307.898 217.701 308.418 217.109 309.083 216.687C309.752 216.265 310.53 216.054 311.416 216.054C312.303 216.054 313.078 216.265 313.743 216.687C314.412 217.109 314.932 217.701 315.303 218.464C315.678 219.227 315.865 220.119 315.865 221.142C315.865 222.156 315.678 223.043 315.303 223.801C314.932 224.56 314.412 225.15 313.743 225.572C313.078 225.994 312.303 226.205 311.416 226.205ZM311.416 224.849C312.089 224.849 312.643 224.677 313.078 224.332C313.513 223.987 313.835 223.533 314.043 222.97C314.252 222.408 314.357 221.798 314.357 221.142C314.357 220.486 314.252 219.874 314.043 219.308C313.835 218.741 313.513 218.283 313.078 217.933C312.643 217.584 312.089 217.409 311.416 217.409C310.743 217.409 310.189 217.584 309.754 217.933C309.32 218.283 308.998 218.741 308.789 219.308C308.58 219.874 308.476 220.486 308.476 221.142C308.476 221.798 308.58 222.408 308.789 222.97C308.998 223.533 309.32 223.987 309.754 224.332C310.189 224.677 310.743 224.849 311.416 224.849ZM325.122 218.381L323.767 218.764C323.682 218.538 323.556 218.319 323.39 218.106C323.228 217.888 323.007 217.71 322.725 217.569C322.444 217.428 322.084 217.358 321.645 217.358C321.044 217.358 320.544 217.496 320.143 217.773C319.747 218.046 319.548 218.393 319.548 218.815C319.548 219.19 319.685 219.487 319.958 219.704C320.23 219.921 320.656 220.102 321.236 220.247L322.693 220.605C323.571 220.818 324.225 221.144 324.656 221.583C325.086 222.018 325.301 222.578 325.301 223.264C325.301 223.827 325.139 224.33 324.816 224.773C324.496 225.216 324.048 225.565 323.473 225.821C322.898 226.077 322.229 226.205 321.466 226.205C320.465 226.205 319.636 225.987 318.98 225.553C318.323 225.118 317.908 224.483 317.733 223.648L319.165 223.29C319.301 223.818 319.559 224.214 319.938 224.479C320.322 224.743 320.823 224.875 321.441 224.875C322.144 224.875 322.702 224.726 323.115 224.428C323.533 224.125 323.742 223.763 323.742 223.341C323.742 223 323.622 222.714 323.384 222.484C323.145 222.25 322.779 222.075 322.284 221.96L320.648 221.577C319.749 221.364 319.088 221.033 318.666 220.586C318.249 220.134 318.04 219.57 318.04 218.892C318.04 218.338 318.195 217.848 318.507 217.422C318.822 216.996 319.25 216.661 319.791 216.418C320.337 216.175 320.955 216.054 321.645 216.054C322.617 216.054 323.379 216.267 323.933 216.693C324.492 217.119 324.888 217.682 325.122 218.381ZM329.081 220.094V226H327.572V212.909H329.081V217.716H329.208C329.439 217.209 329.784 216.806 330.244 216.508C330.708 216.205 331.326 216.054 332.098 216.054C332.767 216.054 333.353 216.188 333.855 216.457C334.358 216.721 334.748 217.128 335.025 217.678C335.306 218.223 335.447 218.918 335.447 219.761V226H333.939V219.864C333.939 219.084 333.736 218.481 333.331 218.055C332.931 217.624 332.375 217.409 331.663 217.409C331.169 217.409 330.725 217.513 330.333 217.722C329.946 217.931 329.639 218.236 329.413 218.636C329.191 219.037 329.081 219.523 329.081 220.094ZM342.195 226.205C341.309 226.205 340.531 225.994 339.862 225.572C339.198 225.15 338.678 224.56 338.303 223.801C337.932 223.043 337.747 222.156 337.747 221.142C337.747 220.119 337.932 219.227 338.303 218.464C338.678 217.701 339.198 217.109 339.862 216.687C340.531 216.265 341.309 216.054 342.195 216.054C343.082 216.054 343.857 216.265 344.522 216.687C345.191 217.109 345.711 217.701 346.082 218.464C346.457 219.227 346.644 220.119 346.644 221.142C346.644 222.156 346.457 223.043 346.082 223.801C345.711 224.56 345.191 225.15 344.522 225.572C343.857 225.994 343.082 226.205 342.195 226.205ZM342.195 224.849C342.869 224.849 343.423 224.677 343.857 224.332C344.292 223.987 344.614 223.533 344.823 222.97C345.031 222.408 345.136 221.798 345.136 221.142C345.136 220.486 345.031 219.874 344.823 219.308C344.614 218.741 344.292 218.283 343.857 217.933C343.423 217.584 342.869 217.409 342.195 217.409C341.522 217.409 340.968 217.584 340.534 217.933C340.099 218.283 339.777 218.741 339.568 219.308C339.36 219.874 339.255 220.486 339.255 221.142C339.255 221.798 339.36 222.408 339.568 222.97C339.777 223.533 340.099 223.987 340.534 224.332C340.968 224.677 341.522 224.849 342.195 224.849ZM348.947 229.682V216.182H350.404V217.741H350.583C350.694 217.571 350.848 217.354 351.044 217.089C351.244 216.821 351.529 216.582 351.9 216.374C352.275 216.161 352.782 216.054 353.422 216.054C354.248 216.054 354.977 216.261 355.608 216.674C356.238 217.087 356.73 217.673 357.084 218.432C357.438 219.19 357.615 220.085 357.615 221.116C357.615 222.156 357.438 223.058 357.084 223.82C356.73 224.579 356.24 225.167 355.614 225.585C354.988 225.998 354.265 226.205 353.447 226.205C352.816 226.205 352.311 226.1 351.932 225.891C351.553 225.678 351.261 225.437 351.056 225.169C350.852 224.896 350.694 224.67 350.583 224.491H350.456V229.682H348.947ZM350.43 221.091C350.43 221.832 350.539 222.487 350.756 223.053C350.973 223.616 351.291 224.057 351.708 224.376C352.126 224.692 352.637 224.849 353.243 224.849C353.873 224.849 354.4 224.683 354.821 224.351C355.248 224.014 355.567 223.562 355.78 222.996C355.998 222.425 356.106 221.79 356.106 221.091C356.106 220.401 356 219.778 355.787 219.224C355.578 218.666 355.26 218.225 354.834 217.901C354.412 217.573 353.882 217.409 353.243 217.409C352.629 217.409 352.113 217.565 351.696 217.876C351.278 218.183 350.963 218.613 350.75 219.167C350.537 219.717 350.43 220.358 350.43 221.091ZM362.166 224.21L362.064 224.901C361.991 225.386 361.88 225.906 361.731 226.46C361.586 227.014 361.435 227.536 361.277 228.026C361.12 228.516 360.99 228.906 360.887 229.196H359.737C359.792 228.923 359.865 228.563 359.954 228.116C360.044 227.668 360.133 227.168 360.223 226.614C360.316 226.064 360.393 225.501 360.453 224.926L360.529 224.21H362.166ZM51.1705 240.909V254H49.5852V240.909H51.1705ZM55.6529 248.094V254H54.1444V244.182H55.6017V245.716H55.7296C55.9597 245.217 56.3091 244.817 56.7779 244.514C57.2466 244.207 57.8517 244.054 58.5932 244.054C59.258 244.054 59.8397 244.19 60.3382 244.463C60.8368 244.732 61.2246 245.141 61.5016 245.69C61.7786 246.236 61.9171 246.926 61.9171 247.761V254H60.4086V247.864C60.4086 247.092 60.2083 246.491 59.8077 246.061C59.4071 245.626 58.8574 245.409 58.1586 245.409C57.677 245.409 57.2466 245.513 56.8674 245.722C56.4924 245.931 56.1962 246.236 55.9789 246.636C55.7615 247.037 55.6529 247.523 55.6529 248.094ZM68.918 254H64.8782V240.909H69.0969C70.3668 240.909 71.4535 241.171 72.3569 241.695C73.2603 242.215 73.9528 242.963 74.4343 243.939C74.9158 244.911 75.1566 246.074 75.1566 247.429C75.1566 248.793 74.9137 249.967 74.4279 250.951C73.9421 251.931 73.2347 252.685 72.3058 253.214C71.3768 253.738 70.2475 254 68.918 254ZM66.4634 252.594H68.8157C69.8981 252.594 70.7951 252.385 71.5067 251.967C72.2184 251.55 72.7489 250.955 73.0984 250.184C73.4478 249.413 73.6225 248.494 73.6225 247.429C73.6225 246.372 73.4499 245.462 73.1048 244.7C72.7596 243.933 72.244 243.344 71.5579 242.935C70.8718 242.522 70.0174 242.315 68.9947 242.315H66.4634V252.594ZM81.7276 254.205C80.7816 254.205 79.9656 253.996 79.2795 253.578C78.5977 253.156 78.0714 252.568 77.7006 251.814C77.3342 251.055 77.1509 250.173 77.1509 249.168C77.1509 248.162 77.3342 247.276 77.7006 246.509C78.0714 245.737 78.587 245.136 79.2475 244.706C79.9123 244.271 80.6879 244.054 81.5742 244.054C82.0856 244.054 82.5906 244.139 83.0891 244.31C83.5877 244.48 84.0415 244.757 84.4506 245.141C84.8597 245.52 85.1857 246.023 85.4286 246.649C85.6715 247.276 85.793 248.047 85.793 248.963V249.602H78.2248V248.298H84.2589C84.2589 247.744 84.1481 247.25 83.9265 246.815C83.7092 246.381 83.3981 246.038 82.9933 245.786C82.5927 245.535 82.1197 245.409 81.5742 245.409C80.9734 245.409 80.4535 245.558 80.0146 245.857C79.5799 246.151 79.2454 246.534 79.011 247.007C78.7766 247.48 78.6594 247.987 78.6594 248.528V249.398C78.6594 250.139 78.7873 250.768 79.043 251.283C79.3029 251.795 79.663 252.185 80.1232 252.453C80.5835 252.717 81.1183 252.849 81.7276 252.849C82.1239 252.849 82.4819 252.794 82.8015 252.683C83.1254 252.568 83.4045 252.398 83.6388 252.172C83.8732 251.942 84.0543 251.656 84.1822 251.315L85.6396 251.724C85.4862 252.219 85.2283 252.653 84.8661 253.028C84.5039 253.399 84.0565 253.689 83.5238 253.898C82.9911 254.102 82.3924 254.205 81.7276 254.205ZM95.0423 246.381L93.6871 246.764C93.6019 246.538 93.4762 246.319 93.31 246.106C93.1481 245.888 92.9265 245.71 92.6452 245.569C92.364 245.428 92.0039 245.358 91.565 245.358C90.9641 245.358 90.4634 245.496 90.0629 245.773C89.6665 246.046 89.4684 246.393 89.4684 246.815C89.4684 247.19 89.6048 247.487 89.8775 247.704C90.1502 247.921 90.5763 248.102 91.1559 248.247L92.6133 248.605C93.4911 248.818 94.1452 249.144 94.5756 249.583C95.006 250.018 95.2212 250.578 95.2212 251.264C95.2212 251.827 95.0593 252.33 94.7354 252.773C94.4158 253.216 93.9684 253.565 93.3931 253.821C92.8178 254.077 92.1488 254.205 91.386 254.205C90.3846 254.205 89.5558 253.987 88.8995 253.553C88.2433 253.118 87.8278 252.483 87.6531 251.648L89.0849 251.29C89.2212 251.818 89.479 252.214 89.8583 252.479C90.2418 252.743 90.7425 252.875 91.3604 252.875C92.0636 252.875 92.6218 252.726 93.0352 252.428C93.4528 252.125 93.6616 251.763 93.6616 251.341C93.6616 251 93.5423 250.714 93.3036 250.484C93.065 250.25 92.6985 250.075 92.2042 249.96L90.5678 249.577C89.6687 249.364 89.0082 249.033 88.5863 248.586C88.1687 248.134 87.9599 247.57 87.9599 246.892C87.9599 246.338 88.1154 245.848 88.4265 245.422C88.7418 244.996 89.1701 244.661 89.7113 244.418C90.2567 244.175 90.8746 244.054 91.565 244.054C92.5366 244.054 93.2994 244.267 93.8533 244.693C94.4116 245.119 94.8079 245.682 95.0423 246.381ZM97.492 254V244.182H99.0005V254H97.492ZM98.2591 242.545C97.965 242.545 97.7115 242.445 97.4984 242.245C97.2896 242.045 97.1852 241.804 97.1852 241.523C97.1852 241.241 97.2896 241.001 97.4984 240.8C97.7115 240.6 97.965 240.5 98.2591 240.5C98.5531 240.5 98.8045 240.6 99.0133 240.8C99.2264 241.001 99.3329 241.241 99.3329 241.523C99.3329 241.804 99.2264 242.045 99.0133 242.245C98.8045 242.445 98.5531 242.545 98.2591 242.545ZM105.727 257.886C104.998 257.886 104.371 257.793 103.847 257.605C103.323 257.422 102.886 257.179 102.537 256.876C102.192 256.578 101.917 256.259 101.712 255.918L102.914 255.074C103.05 255.253 103.223 255.457 103.432 255.688C103.641 255.922 103.926 256.124 104.288 256.295C104.655 256.469 105.134 256.557 105.727 256.557C106.519 256.557 107.173 256.365 107.689 255.982C108.205 255.598 108.462 254.997 108.462 254.179V252.185H108.335C108.224 252.364 108.066 252.585 107.862 252.849C107.661 253.109 107.371 253.342 106.992 253.546C106.617 253.746 106.11 253.847 105.471 253.847C104.678 253.847 103.967 253.659 103.336 253.284C102.71 252.909 102.213 252.364 101.847 251.648C101.484 250.932 101.303 250.062 101.303 249.04C101.303 248.034 101.48 247.158 101.834 246.413C102.188 245.663 102.68 245.083 103.31 244.674C103.941 244.261 104.67 244.054 105.496 244.054C106.136 244.054 106.643 244.161 107.018 244.374C107.397 244.582 107.687 244.821 107.887 245.089C108.092 245.354 108.249 245.571 108.36 245.741H108.513V244.182H109.971V254.281C109.971 255.125 109.779 255.811 109.396 256.339C109.016 256.872 108.505 257.262 107.862 257.509C107.222 257.761 106.511 257.886 105.727 257.886ZM105.675 252.491C106.281 252.491 106.792 252.353 107.21 252.076C107.627 251.799 107.945 251.401 108.162 250.881C108.379 250.361 108.488 249.739 108.488 249.014C108.488 248.307 108.381 247.683 108.168 247.141C107.955 246.6 107.64 246.176 107.222 245.869C106.805 245.562 106.289 245.409 105.675 245.409C105.036 245.409 104.504 245.571 104.077 245.895C103.656 246.219 103.338 246.653 103.125 247.199C102.916 247.744 102.812 248.349 102.812 249.014C102.812 249.696 102.918 250.299 103.131 250.823C103.349 251.343 103.668 251.752 104.09 252.05C104.516 252.344 105.045 252.491 105.675 252.491ZM114.241 248.094V254H112.732V244.182H114.19V245.716H114.317C114.548 245.217 114.897 244.817 115.366 244.514C115.835 244.207 116.44 244.054 117.181 244.054C117.846 244.054 118.428 244.19 118.926 244.463C119.425 244.732 119.813 245.141 120.089 245.69C120.366 246.236 120.505 246.926 120.505 247.761V254H118.996V247.864C118.996 247.092 118.796 246.491 118.396 246.061C117.995 245.626 117.445 245.409 116.746 245.409C116.265 245.409 115.835 245.513 115.455 245.722C115.08 245.931 114.784 246.236 114.567 246.636C114.349 247.037 114.241 247.523 114.241 248.094ZM131.213 254.23C130.591 254.23 130.026 254.113 129.519 253.879C129.012 253.64 128.61 253.297 128.311 252.849C128.013 252.398 127.864 251.852 127.864 251.213C127.864 250.651 127.975 250.195 128.196 249.845C128.418 249.491 128.714 249.214 129.085 249.014C129.455 248.814 129.865 248.665 130.312 248.567C130.764 248.464 131.218 248.384 131.673 248.324C132.27 248.247 132.754 248.19 133.124 248.151C133.499 248.109 133.772 248.038 133.943 247.94C134.117 247.842 134.205 247.672 134.205 247.429V247.378C134.205 246.747 134.032 246.257 133.687 245.908C133.346 245.558 132.828 245.384 132.134 245.384C131.414 245.384 130.849 245.541 130.44 245.857C130.031 246.172 129.743 246.509 129.577 246.866L128.145 246.355C128.401 245.759 128.742 245.294 129.168 244.962C129.598 244.625 130.067 244.391 130.574 244.259C131.085 244.122 131.588 244.054 132.083 244.054C132.398 244.054 132.76 244.092 133.169 244.169C133.583 244.241 133.981 244.393 134.365 244.623C134.752 244.853 135.074 245.2 135.33 245.665C135.585 246.129 135.713 246.751 135.713 247.531V254H134.205V252.67H134.128C134.026 252.884 133.855 253.112 133.617 253.354C133.378 253.597 133.061 253.804 132.664 253.974C132.268 254.145 131.784 254.23 131.213 254.23ZM131.443 252.875C132.04 252.875 132.543 252.758 132.952 252.523C133.365 252.289 133.676 251.987 133.885 251.616C134.098 251.245 134.205 250.855 134.205 250.446V249.065C134.141 249.142 134 249.212 133.783 249.276C133.57 249.336 133.323 249.389 133.041 249.436C132.764 249.479 132.494 249.517 132.23 249.551C131.97 249.581 131.759 249.607 131.597 249.628C131.205 249.679 130.838 249.762 130.497 249.877C130.161 249.988 129.888 250.156 129.679 250.382C129.475 250.604 129.372 250.906 129.372 251.29C129.372 251.814 129.566 252.21 129.954 252.479C130.346 252.743 130.843 252.875 131.443 252.875ZM139.975 248.094V254H138.467V244.182H139.924V245.716H140.052C140.282 245.217 140.631 244.817 141.1 244.514C141.569 244.207 142.174 244.054 142.915 244.054C143.58 244.054 144.162 244.19 144.661 244.463C145.159 244.732 145.547 245.141 145.824 245.69C146.101 246.236 146.239 246.926 146.239 247.761V254H144.731V247.864C144.731 247.092 144.531 246.491 144.13 246.061C143.729 245.626 143.18 245.409 142.481 245.409C141.999 245.409 141.569 245.513 141.19 245.722C140.815 245.931 140.518 246.236 140.301 246.636C140.084 247.037 139.975 247.523 139.975 248.094ZM152.703 254.205C151.885 254.205 151.163 253.998 150.536 253.585C149.91 253.167 149.42 252.579 149.066 251.82C148.713 251.058 148.536 250.156 148.536 249.116C148.536 248.085 148.713 247.19 149.066 246.432C149.42 245.673 149.912 245.087 150.543 244.674C151.173 244.261 151.902 244.054 152.729 244.054C153.368 244.054 153.873 244.161 154.244 244.374C154.619 244.582 154.904 244.821 155.1 245.089C155.301 245.354 155.456 245.571 155.567 245.741H155.695V240.909H157.203V254H155.746V252.491H155.567C155.456 252.67 155.298 252.896 155.094 253.169C154.889 253.437 154.597 253.678 154.218 253.891C153.839 254.1 153.334 254.205 152.703 254.205ZM152.908 252.849C153.513 252.849 154.024 252.692 154.442 252.376C154.86 252.057 155.177 251.616 155.394 251.053C155.612 250.487 155.72 249.832 155.72 249.091C155.72 248.358 155.614 247.717 155.401 247.167C155.188 246.613 154.872 246.183 154.455 245.876C154.037 245.565 153.521 245.409 152.908 245.409C152.269 245.409 151.736 245.573 151.31 245.901C150.888 246.225 150.57 246.666 150.357 247.224C150.149 247.778 150.044 248.401 150.044 249.091C150.044 249.79 150.151 250.425 150.364 250.996C150.581 251.562 150.901 252.014 151.323 252.351C151.749 252.683 152.277 252.849 152.908 252.849ZM165.443 254V240.909H173.292V242.315H167.028V246.739H172.704V248.145H167.028V254H165.443ZM175.803 254V244.182H177.311V254H175.803ZM176.57 242.545C176.276 242.545 176.022 242.445 175.809 242.245C175.6 242.045 175.496 241.804 175.496 241.523C175.496 241.241 175.6 241.001 175.809 240.8C176.022 240.6 176.276 240.5 176.57 240.5C176.864 240.5 177.115 240.6 177.324 240.8C177.537 241.001 177.643 241.241 177.643 241.523C177.643 241.804 177.537 242.045 177.324 242.245C177.115 242.445 176.864 242.545 176.57 242.545ZM184.037 257.886C183.308 257.886 182.682 257.793 182.158 257.605C181.634 257.422 181.197 257.179 180.847 256.876C180.502 256.578 180.227 256.259 180.023 255.918L181.225 255.074C181.361 255.253 181.534 255.457 181.742 255.688C181.951 255.922 182.237 256.124 182.599 256.295C182.965 256.469 183.445 256.557 184.037 256.557C184.83 256.557 185.484 256.365 185.999 255.982C186.515 255.598 186.773 254.997 186.773 254.179V252.185H186.645C186.534 252.364 186.377 252.585 186.172 252.849C185.972 253.109 185.682 253.342 185.303 253.546C184.928 253.746 184.421 253.847 183.781 253.847C182.989 253.847 182.277 253.659 181.646 253.284C181.02 252.909 180.524 252.364 180.157 251.648C179.795 250.932 179.614 250.062 179.614 249.04C179.614 248.034 179.791 247.158 180.144 246.413C180.498 245.663 180.99 245.083 181.621 244.674C182.252 244.261 182.98 244.054 183.807 244.054C184.446 244.054 184.953 244.161 185.328 244.374C185.708 244.582 185.997 244.821 186.198 245.089C186.402 245.354 186.56 245.571 186.671 245.741H186.824V244.182H188.281V254.281C188.281 255.125 188.09 255.811 187.706 256.339C187.327 256.872 186.816 257.262 186.172 257.509C185.533 257.761 184.821 257.886 184.037 257.886ZM183.986 252.491C184.591 252.491 185.102 252.353 185.52 252.076C185.938 251.799 186.255 251.401 186.472 250.881C186.69 250.361 186.798 249.739 186.798 249.014C186.798 248.307 186.692 247.683 186.479 247.141C186.266 246.6 185.95 246.176 185.533 245.869C185.115 245.562 184.6 245.409 183.986 245.409C183.347 245.409 182.814 245.571 182.388 245.895C181.966 246.219 181.649 246.653 181.436 247.199C181.227 247.744 181.122 248.349 181.122 249.014C181.122 249.696 181.229 250.299 181.442 250.823C181.659 251.343 181.979 251.752 182.401 252.05C182.827 252.344 183.355 252.491 183.986 252.491ZM191.043 254V244.182H192.5V245.716H192.628C192.833 245.192 193.163 244.785 193.619 244.495C194.075 244.201 194.622 244.054 195.262 244.054C195.909 244.054 196.448 244.201 196.879 244.495C197.313 244.785 197.652 245.192 197.895 245.716H197.997C198.249 245.209 198.626 244.806 199.129 244.508C199.632 244.205 200.235 244.054 200.938 244.054C201.816 244.054 202.534 244.329 203.092 244.879C203.65 245.424 203.929 246.274 203.929 247.429V254H202.421V247.429C202.421 246.705 202.222 246.187 201.826 245.876C201.43 245.565 200.963 245.409 200.426 245.409C199.736 245.409 199.201 245.618 198.822 246.036C198.443 246.449 198.253 246.973 198.253 247.608V254H196.719V247.276C196.719 246.717 196.538 246.268 196.176 245.927C195.813 245.582 195.347 245.409 194.776 245.409C194.384 245.409 194.017 245.513 193.676 245.722C193.34 245.931 193.067 246.221 192.858 246.592C192.654 246.958 192.551 247.382 192.551 247.864V254H191.043ZM209.577 254.23C208.954 254.23 208.39 254.113 207.883 253.879C207.376 253.64 206.973 253.297 206.675 252.849C206.376 252.398 206.227 251.852 206.227 251.213C206.227 250.651 206.338 250.195 206.559 249.845C206.781 249.491 207.077 249.214 207.448 249.014C207.819 248.814 208.228 248.665 208.675 248.567C209.127 248.464 209.581 248.384 210.037 248.324C210.633 248.247 211.117 248.19 211.488 248.151C211.863 248.109 212.135 248.038 212.306 247.94C212.481 247.842 212.568 247.672 212.568 247.429V247.378C212.568 246.747 212.395 246.257 212.05 245.908C211.709 245.558 211.192 245.384 210.497 245.384C209.777 245.384 209.212 245.541 208.803 245.857C208.394 246.172 208.106 246.509 207.94 246.866L206.508 246.355C206.764 245.759 207.105 245.294 207.531 244.962C207.961 244.625 208.43 244.391 208.937 244.259C209.449 244.122 209.952 244.054 210.446 244.054C210.761 244.054 211.123 244.092 211.532 244.169C211.946 244.241 212.344 244.393 212.728 244.623C213.116 244.853 213.437 245.2 213.693 245.665C213.949 246.129 214.077 246.751 214.077 247.531V254H212.568V252.67H212.491C212.389 252.884 212.219 253.112 211.98 253.354C211.741 253.597 211.424 253.804 211.028 253.974C210.631 254.145 210.148 254.23 209.577 254.23ZM209.807 252.875C210.403 252.875 210.906 252.758 211.315 252.523C211.729 252.289 212.04 251.987 212.248 251.616C212.461 251.245 212.568 250.855 212.568 250.446V249.065C212.504 249.142 212.363 249.212 212.146 249.276C211.933 249.336 211.686 249.389 211.405 249.436C211.128 249.479 210.857 249.517 210.593 249.551C210.333 249.581 210.122 249.607 209.96 249.628C209.568 249.679 209.202 249.762 208.861 249.877C208.524 249.988 208.251 250.156 208.042 250.382C207.838 250.604 207.736 250.906 207.736 251.29C207.736 251.814 207.93 252.21 208.317 252.479C208.709 252.743 209.206 252.875 209.807 252.875Z" fill="#19191C"/>
<line x1="48" y1="135" x2="419" y2="135" stroke="#19191C" stroke-width="4"/>
<path d="M50.1491 101V76.2727H59.9048C61.7803 76.2727 63.3781 76.6309 64.6982 77.3473C66.0182 78.0556 67.0244 79.0417 67.7166 80.3054C68.4169 81.5611 68.767 83.0099 68.767 84.652C68.767 86.294 68.4129 87.7429 67.7045 88.9986C66.9962 90.2543 65.9699 91.2322 64.6257 91.9325C63.2895 92.6328 61.6716 92.983 59.772 92.983H53.554V88.7933H58.9268C59.933 88.7933 60.7621 88.6203 61.4141 88.2741C62.0741 87.92 62.5651 87.433 62.8871 86.8132C63.2171 86.1854 63.3821 85.465 63.3821 84.652C63.3821 83.831 63.2171 83.1146 62.8871 82.5028C62.5651 81.883 62.0741 81.4041 61.4141 81.0661C60.754 80.7199 59.9169 80.5469 58.9027 80.5469H55.3771V101H50.1491ZM80.1467 101.362C78.2712 101.362 76.6493 100.964 75.2809 100.167C73.9206 99.362 72.8701 98.2431 72.1296 96.8104C71.3891 95.3696 71.0188 93.6993 71.0188 91.7997C71.0188 89.884 71.3891 88.2098 72.1296 86.777C72.8701 85.3362 73.9206 84.2173 75.2809 83.4205C76.6493 82.6155 78.2712 82.2131 80.1467 82.2131C82.0221 82.2131 83.64 82.6155 85.0004 83.4205C86.3687 84.2173 87.4232 85.3362 88.1637 86.777C88.9042 88.2098 89.2745 89.884 89.2745 91.7997C89.2745 93.6993 88.9042 95.3696 88.1637 96.8104C87.4232 98.2431 86.3687 99.362 85.0004 100.167C83.64 100.964 82.0221 101.362 80.1467 101.362ZM80.1708 97.3778C81.024 97.3778 81.7364 97.1364 82.3079 96.6534C82.8794 96.1624 83.31 95.4943 83.5998 94.6491C83.8976 93.804 84.0465 92.8421 84.0465 91.7635C84.0465 90.6849 83.8976 89.723 83.5998 88.8778C83.31 88.0327 82.8794 87.3646 82.3079 86.8736C81.7364 86.3826 81.024 86.1371 80.1708 86.1371C79.3095 86.1371 78.5851 86.3826 77.9975 86.8736C77.418 87.3646 76.9793 88.0327 76.6815 88.8778C76.3917 89.723 76.2468 90.6849 76.2468 91.7635C76.2468 92.8421 76.3917 93.804 76.6815 94.6491C76.9793 95.4943 77.418 96.1624 77.9975 96.6534C78.5851 97.1364 79.3095 97.3778 80.1708 97.3778ZM92.619 101V82.4545H97.6055V85.6903H97.7987C98.1367 84.5393 98.7042 83.67 99.5011 83.0824C100.298 82.4867 101.216 82.1889 102.254 82.1889C102.511 82.1889 102.789 82.205 103.087 82.2372C103.385 82.2694 103.646 82.3137 103.872 82.37V86.9339C103.63 86.8615 103.296 86.7971 102.87 86.7408C102.443 86.6844 102.053 86.6562 101.699 86.6562C100.942 86.6562 100.266 86.8213 99.6701 87.1513C99.0825 87.4732 98.6156 87.924 98.2695 88.5036C97.9315 89.0831 97.7624 89.7512 97.7624 90.5078V101H92.619ZM117.325 82.4545V86.3182H106.157V82.4545H117.325ZM108.692 78.0114H113.836V95.3011C113.836 95.776 113.908 96.1463 114.053 96.4119C114.198 96.6695 114.399 96.8506 114.657 96.9553C114.922 97.0599 115.228 97.1122 115.574 97.1122C115.816 97.1122 116.057 97.0921 116.299 97.0518C116.54 97.0036 116.725 96.9673 116.854 96.9432L117.663 100.771C117.406 100.851 117.043 100.944 116.577 101.048C116.11 101.161 115.542 101.229 114.874 101.254C113.635 101.302 112.548 101.137 111.614 100.759C110.689 100.38 109.968 99.7926 109.453 98.9957C108.938 98.1989 108.684 97.1927 108.692 95.9773V78.0114ZM130.649 82.4545V86.3182H119.203V82.4545H130.649ZM121.823 101V81.1143C121.823 79.7701 122.084 78.6553 122.607 77.7699C123.139 76.8845 123.863 76.2204 124.781 75.7777C125.698 75.335 126.741 75.1136 127.908 75.1136C128.697 75.1136 129.417 75.174 130.069 75.2947C130.729 75.4155 131.22 75.5241 131.542 75.6207L130.624 79.4844C130.423 79.42 130.174 79.3596 129.876 79.3033C129.586 79.2469 129.288 79.2188 128.982 79.2188C128.226 79.2188 127.699 79.3958 127.401 79.75C127.103 80.0961 126.954 80.5831 126.954 81.2109V101H121.823ZM141.506 101.362C139.631 101.362 138.009 100.964 136.64 100.167C135.28 99.362 134.23 98.2431 133.489 96.8104C132.748 95.3696 132.378 93.6993 132.378 91.7997C132.378 89.884 132.748 88.2098 133.489 86.777C134.23 85.3362 135.28 84.2173 136.64 83.4205C138.009 82.6155 139.631 82.2131 141.506 82.2131C143.382 82.2131 144.999 82.6155 146.36 83.4205C147.728 84.2173 148.783 85.3362 149.523 86.777C150.264 88.2098 150.634 89.884 150.634 91.7997C150.634 93.6993 150.264 95.3696 149.523 96.8104C148.783 98.2431 147.728 99.362 146.36 100.167C144.999 100.964 143.382 101.362 141.506 101.362ZM141.53 97.3778C142.383 97.3778 143.096 97.1364 143.667 96.6534C144.239 96.1624 144.669 95.4943 144.959 94.6491C145.257 93.804 145.406 92.8421 145.406 91.7635C145.406 90.6849 145.257 89.723 144.959 88.8778C144.669 88.0327 144.239 87.3646 143.667 86.8736C143.096 86.3826 142.383 86.1371 141.53 86.1371C140.669 86.1371 139.944 86.3826 139.357 86.8736C138.777 87.3646 138.339 88.0327 138.041 88.8778C137.751 89.723 137.606 90.6849 137.606 91.7635C137.606 92.8421 137.751 93.804 138.041 94.6491C138.339 95.4943 138.777 96.1624 139.357 96.6534C139.944 97.1364 140.669 97.3778 141.53 97.3778ZM159.122 76.2727V101H153.978V76.2727H159.122ZM163.242 101V82.4545H168.385V101H163.242ZM165.826 80.0639C165.061 80.0639 164.405 79.8104 163.858 79.3033C163.318 78.7881 163.049 78.1723 163.049 77.456C163.049 76.7476 163.318 76.1399 163.858 75.6328C164.405 75.1177 165.061 74.8601 165.826 74.8601C166.59 74.8601 167.242 75.1177 167.782 75.6328C168.329 76.1399 168.603 76.7476 168.603 77.456C168.603 78.1723 168.329 78.7881 167.782 79.3033C167.242 79.8104 166.59 80.0639 165.826 80.0639ZM180.885 101.362C179.009 101.362 177.388 100.964 176.019 100.167C174.659 99.362 173.608 98.2431 172.868 96.8104C172.127 95.3696 171.757 93.6993 171.757 91.7997C171.757 89.884 172.127 88.2098 172.868 86.777C173.608 85.3362 174.659 84.2173 176.019 83.4205C177.388 82.6155 179.009 82.2131 180.885 82.2131C182.76 82.2131 184.378 82.6155 185.739 83.4205C187.107 84.2173 188.161 85.3362 188.902 86.777C189.643 88.2098 190.013 89.884 190.013 91.7997C190.013 93.6993 189.643 95.3696 188.902 96.8104C188.161 98.2431 187.107 99.362 185.739 100.167C184.378 100.964 182.76 101.362 180.885 101.362ZM180.909 97.3778C181.762 97.3778 182.475 97.1364 183.046 96.6534C183.618 96.1624 184.048 95.4943 184.338 94.6491C184.636 93.804 184.785 92.8421 184.785 91.7635C184.785 90.6849 184.636 89.723 184.338 88.8778C184.048 88.0327 183.618 87.3646 183.046 86.8736C182.475 86.3826 181.762 86.1371 180.909 86.1371C180.048 86.1371 179.323 86.3826 178.736 86.8736C178.156 87.3646 177.718 88.0327 177.42 88.8778C177.13 89.723 176.985 90.6849 176.985 91.7635C176.985 92.8421 177.13 93.804 177.42 94.6491C177.718 95.4943 178.156 96.1624 178.736 96.6534C179.323 97.1364 180.048 97.3778 180.909 97.3778Z" fill="#19191C"/>
</svg>
